<svg width="535" height="507" viewBox="0 0 535 507" fill="none" xmlns="http://www.w3.org/2000/svg">
<path d="M534.861 495.758C534.861 501.782 415.116 506.67 267.43 506.67C119.744 506.67 0 501.782 0 495.758C0 489.733 119.729 484.83 267.43 484.83C415.132 484.83 534.861 489.717 534.861 495.758Z" fill="black" fill-opacity="0.08"/>
<path d="M483.737 409.529C480.638 413.119 478.544 417.466 477.668 422.128L465.504 428.952V396.699L465.735 397.032L485.133 382.833C487.578 383.217 496.989 384.292 505.619 379.67C515.503 374.305 522.776 355.881 522.776 355.881C522.776 355.881 499.05 353.205 491.009 363.153C486.6 368.318 484.252 374.929 484.416 381.719L465.504 395.572V371.757C469.044 370.108 472.173 367.693 474.664 364.685C477.156 361.678 478.947 358.155 479.909 354.37C483.353 340.964 464.979 314.55 464.979 314.55C464.979 314.55 445.838 341.732 449.615 355.522C452.854 367.199 461.574 370.887 464.173 371.757V423.421L450.562 412.064C450.87 409.349 451.113 400.835 443.533 392.295C434.34 381.962 409.846 382.73 409.846 382.73C409.846 382.73 420.179 403.396 429.052 410.297C436.734 416.315 447.361 413.856 449.909 413.139L464.275 425.111V440.808H442.88L451.587 495.224H477.706L486.413 440.808H465.504V430.424L478.871 422.934C482.124 423.83 491.214 425.7 499.819 421.398C510.535 416.059 519.332 404.535 519.332 404.535C519.332 404.535 493.686 398.044 483.737 409.529Z" fill="#68F0AE"/>
<path d="M451.42 495.161L442.458 440.744H486.631L477.668 495.161H451.42Z" fill="#212121"/>
<g filter="url(#filter0_d_2063_2530)">
<path d="M433.955 1.00006H82.4625C72.5709 1.00006 64.5522 9.02352 64.5522 18.921V240.565C64.5522 250.463 72.5709 258.486 82.4625 258.486H433.955C443.846 258.486 451.865 250.463 451.865 240.565V18.921C451.865 9.02352 443.846 1.00006 433.955 1.00006Z" fill="white" stroke="#212121" stroke-width="1.53696" stroke-miterlimit="10" stroke-linecap="round"/>
<path d="M64.5524 19.8584C64.5524 9.6724 72.8098 1.41498 82.9958 1.41498H433.422C443.608 1.41498 451.865 9.6724 451.865 19.8584V24.4693H64.5524V19.8584Z" fill="#5A30D3"/>
<path d="M222.352 151.226H189.307C185.912 151.226 183.159 153.979 183.159 157.374V170.515C183.159 173.911 185.912 176.663 189.307 176.663H222.352C225.747 176.663 228.5 173.911 228.5 170.515V157.374C228.5 153.979 225.747 151.226 222.352 151.226Z" fill="#F6F4FF"/>
<path d="M222.352 181.259H189.307C185.912 181.259 183.159 184.011 183.159 187.406V200.547C183.159 203.943 185.912 206.695 189.307 206.695H222.352C225.747 206.695 228.5 203.943 228.5 200.547V187.406C228.5 184.011 225.747 181.259 222.352 181.259Z" fill="#F6F4FF"/>
<path d="M272.303 151.226H239.258C235.863 151.226 233.11 153.979 233.11 157.374V170.515C233.11 173.911 235.863 176.663 239.258 176.663H272.303C275.698 176.663 278.451 173.911 278.451 170.515V157.374C278.451 153.979 275.698 151.226 272.303 151.226Z" fill="#F6F4FF"/>
<path d="M322.269 121.179H289.225C285.829 121.179 283.077 123.931 283.077 127.327V140.468C283.077 143.863 285.829 146.616 289.225 146.616H322.269C325.665 146.616 328.417 143.863 328.417 140.468V127.327C328.417 123.931 325.665 121.179 322.269 121.179Z" fill="#F6F4FF"/>
<path d="M322.269 91.1314H289.225C285.829 91.1314 283.077 93.8839 283.077 97.2792V110.42C283.077 113.816 285.829 116.568 289.225 116.568H322.269C325.665 116.568 328.417 113.816 328.417 110.42V97.2792C328.417 93.8839 325.665 91.1314 322.269 91.1314Z" fill="#F6F4FF"/>
<path d="M322.269 35.6013H289.225C285.829 35.6013 283.077 38.3537 283.077 41.7491V50.3253C283.077 53.7206 285.829 56.4731 289.225 56.4731H322.269C325.665 56.4731 328.417 53.7207 328.417 50.3253V41.7491C328.417 38.3537 325.665 35.6013 322.269 35.6013Z" fill="#68F0AE"/>
<path d="M272.303 35.6013H239.258C235.863 35.6013 233.11 38.3537 233.11 41.7491V50.3253C233.11 53.7206 235.863 56.4731 239.258 56.4731H272.303C275.698 56.4731 278.451 53.7207 278.451 50.3253V41.7491C278.451 38.3537 275.698 35.6013 272.303 35.6013Z" fill="#68F0AE"/>
<path d="M272.303 181.259H239.258C235.863 181.259 233.11 184.011 233.11 187.406V200.547C233.11 203.943 235.863 206.695 239.258 206.695H272.303C275.698 206.695 278.451 203.943 278.451 200.547V187.406C278.451 184.011 275.698 181.259 272.303 181.259Z" fill="#F6F4FF"/>
<path d="M272.81 61.4836H239.765C236.37 61.4836 233.617 64.2361 233.617 67.6315V80.7724C233.617 84.1678 236.37 86.9203 239.765 86.9203H272.81C276.205 86.9203 278.958 84.1678 278.958 80.7724V67.6315C278.958 64.2361 276.205 61.4836 272.81 61.4836Z" fill="#F6F4FF"/>
<path d="M272.303 91.1314H239.258C235.863 91.1314 233.11 93.8839 233.11 97.2792V110.42C233.11 113.816 235.863 116.568 239.258 116.568H272.303C275.698 116.568 278.451 113.816 278.451 110.42V97.2792C278.451 93.8839 275.698 91.1314 272.303 91.1314Z" fill="#F6F4FF"/>
<path d="M272.435 121.417H239.39C235.995 121.417 233.243 124.17 233.243 127.565V140.706C233.243 144.101 235.995 146.854 239.39 146.854H272.435C275.83 146.854 278.583 144.101 278.583 140.706V127.565C278.583 124.17 275.83 121.417 272.435 121.417Z" fill="#F6F4FF"/>
<rect x="239.074" y="129.192" width="6.80291" height="9.71844" rx="3.40145" fill="#D4CAFF"/>
<rect x="247.82" y="129.192" width="6.80291" height="9.71844" rx="3.40145" fill="#D4CAFF"/>
<rect x="256.567" y="129.192" width="6.80291" height="9.71844" rx="3.40145" fill="#D4CAFF"/>
<rect x="266.285" y="129.192" width="6.80291" height="9.71844" rx="3.40145" fill="#D4CAFF"/>
<path d="M322.269 181.259H289.225C285.829 181.259 283.077 184.011 283.077 187.406V200.547C283.077 203.943 285.829 206.695 289.225 206.695H322.269C325.665 206.695 328.417 203.943 328.417 200.547V187.406C328.417 184.011 325.665 181.259 322.269 181.259Z" fill="#F6F4FF"/>
<path d="M122.434 61.084H86.3926C82.9972 61.084 80.2448 63.8365 80.2448 67.2318V80.3728C80.2448 83.7681 82.9972 86.5206 86.3926 86.5206H122.434C125.83 86.5206 128.582 83.7681 128.582 80.3728V67.2318C128.582 63.8365 125.83 61.084 122.434 61.084Z" fill="#F6F4FF"/>
<path d="M122.853 121.417H86.8112C83.4158 121.417 80.6633 124.17 80.6633 127.565V140.706C80.6633 144.101 83.4158 146.854 86.8112 146.854H122.853C126.248 146.854 129.001 144.101 129.001 140.706V127.565C129.001 124.17 126.248 121.417 122.853 121.417Z" fill="#F6F4FF"/>
<path d="M122.434 151.226H86.3926C82.9972 151.226 80.2448 153.979 80.2448 157.374V170.515C80.2448 173.911 82.9972 176.663 86.3926 176.663H122.434C125.83 176.663 128.582 173.911 128.582 170.515V157.374C128.582 153.979 125.83 151.226 122.434 151.226Z" fill="#F6F4FF"/>
<path d="M122.112 90.6858H86.0701C82.6747 90.6858 79.9222 93.4383 79.9222 96.8336V109.975C79.9222 113.37 82.6747 116.122 86.0701 116.122H122.112C125.507 116.122 128.26 113.37 128.26 109.975V96.8336C128.26 93.4383 125.507 90.6858 122.112 90.6858Z" fill="#F6F4FF"/>
<path d="M425.184 35.6013H389.142C385.747 35.6013 382.994 38.3537 382.994 41.7491V50.3253C382.994 53.7206 385.747 56.4731 389.142 56.4731H425.184C428.579 56.4731 431.332 53.7207 431.332 50.3253V41.7491C431.332 38.3537 428.579 35.6013 425.184 35.6013Z" fill="#68F0AE"/>
<path d="M122.434 181.259H86.3926C82.9972 181.259 80.2448 184.011 80.2448 187.406V200.547C80.2448 203.943 82.9972 206.695 86.3926 206.695H122.434C125.83 206.695 128.582 203.943 128.582 200.547V187.406C128.582 184.011 125.83 181.259 122.434 181.259Z" fill="#F6F4FF"/>
<path d="M372.22 61.084H339.176C335.78 61.084 333.028 63.8365 333.028 67.2318V80.3728C333.028 83.7681 335.78 86.5206 339.176 86.5206H372.22C375.616 86.5206 378.368 83.7681 378.368 80.3728V67.2318C378.368 63.8365 375.616 61.084 372.22 61.084Z" fill="#F6F4FF"/>
<path d="M322.269 151.226H289.225C285.829 151.226 283.077 153.979 283.077 157.374V170.515C283.077 173.911 285.829 176.663 289.225 176.663H322.269C325.665 176.663 328.417 173.911 328.417 170.515V157.374C328.417 153.979 325.665 151.226 322.269 151.226Z" fill="#F6F4FF"/>
<path d="M372.22 151.226H339.176C335.78 151.226 333.028 153.979 333.028 157.374V170.515C333.028 173.911 335.78 176.663 339.176 176.663H372.22C375.616 176.663 378.368 173.911 378.368 170.515V157.374C378.368 153.979 375.616 151.226 372.22 151.226Z" fill="#F6F4FF"/>
<path d="M372.22 91.1314H339.176C335.78 91.1314 333.028 93.8839 333.028 97.2792V110.42C333.028 113.816 335.78 116.568 339.176 116.568H372.22C375.616 116.568 378.368 113.816 378.368 110.42V97.2792C378.368 93.8839 375.616 91.1314 372.22 91.1314Z" fill="#F6F4FF"/>
<path d="M372.22 121.179H339.176C335.78 121.179 333.028 123.931 333.028 127.327V140.468C333.028 143.863 335.78 146.616 339.176 146.616H372.22C375.616 146.616 378.368 143.863 378.368 140.468V127.327C378.368 123.931 375.616 121.179 372.22 121.179Z" fill="#F6F4FF"/>
<path d="M372.22 181.259H339.176C335.78 181.259 333.028 184.011 333.028 187.406V200.547C333.028 203.943 335.78 206.695 339.176 206.695H372.22C375.616 206.695 378.368 203.943 378.368 200.547V187.406C378.368 184.011 375.616 181.259 372.22 181.259Z" fill="#F6F4FF"/>
<path d="M321.999 61.1631H288.955C285.559 61.1631 282.807 63.9156 282.807 67.3109V80.4519C282.807 83.8472 285.559 86.5997 288.955 86.5997H321.999C325.394 86.5997 328.147 83.8472 328.147 80.4519V67.3109C328.147 63.9156 325.394 61.1631 321.999 61.1631Z" fill="#F6F4FF"/>
<rect x="288.638" y="68.9377" width="6.80291" height="9.71844" rx="3.40145" fill="#D4CAFF"/>
<rect x="297.384" y="68.9377" width="6.80291" height="9.71844" rx="3.40145" fill="#D4CAFF"/>
<rect x="306.131" y="68.9377" width="6.80291" height="9.71844" rx="3.40145" fill="#D4CAFF"/>
<rect x="315.85" y="68.9377" width="6.80291" height="9.71844" rx="3.40145" fill="#D4CAFF"/>
<rect x="87.4662" y="129.192" width="6.80291" height="9.71844" rx="3.40145" fill="#D4CAFF"/>
<rect x="96.2128" y="129.192" width="6.80291" height="9.71844" rx="3.40145" fill="#D4CAFF"/>
<rect x="104.959" y="129.192" width="6.80291" height="9.71844" rx="3.40145" fill="#D4CAFF"/>
<rect x="114.678" y="129.192" width="6.80291" height="9.71844" rx="3.40145" fill="#D4CAFF"/>
<path d="M425.184 181.259H389.142C385.747 181.259 382.994 184.011 382.994 187.406V200.547C382.994 203.943 385.747 206.695 389.142 206.695H425.184C428.579 206.695 431.332 203.943 431.332 200.547V187.406C431.332 184.011 428.579 181.259 425.184 181.259Z" fill="#F6F4FF"/>
<path d="M372.22 35.6013H339.176C335.78 35.6013 333.028 38.3537 333.028 41.7491V50.3253C333.028 53.7206 335.78 56.4731 339.176 56.4731H372.22C375.616 56.4731 378.368 53.7207 378.368 50.3253V41.7491C378.368 38.3537 375.616 35.6013 372.22 35.6013Z" fill="#68F0AE"/>
<path d="M425.184 151.226H389.142C385.747 151.226 382.994 153.979 382.994 157.374V170.515C382.994 173.911 385.747 176.663 389.142 176.663H425.184C428.579 176.663 431.332 173.911 431.332 170.515V157.374C431.332 153.979 428.579 151.226 425.184 151.226Z" fill="#F6F4FF"/>
<path d="M372.22 211.306H339.176C335.78 211.306 333.028 214.059 333.028 217.454V232.04C333.028 235.435 335.78 238.187 339.176 238.187H372.22C375.616 238.187 378.368 235.435 378.368 232.04V217.454C378.368 214.059 375.616 211.306 372.22 211.306Z" fill="#F6F4FF"/>
<path d="M425.184 121.179H389.142C385.747 121.179 382.994 123.931 382.994 127.327V140.468C382.994 143.863 385.747 146.616 389.142 146.616H425.184C428.579 146.616 431.332 143.863 431.332 140.468V127.327C431.332 123.931 428.579 121.179 425.184 121.179Z" fill="#F6F4FF"/>
<path d="M272.303 211.306H239.258C235.863 211.306 233.11 214.059 233.11 217.454V232.04C233.11 235.435 235.863 238.187 239.258 238.187H272.303C275.698 238.187 278.451 235.435 278.451 232.04V217.454C278.451 214.059 275.698 211.306 272.303 211.306Z" fill="#F6F4FF"/>
<path d="M322.269 211.306H289.225C285.829 211.306 283.077 214.059 283.077 217.454V232.04C283.077 235.435 285.829 238.187 289.225 238.187H322.269C325.665 238.187 328.417 235.435 328.417 232.04V217.454C328.417 214.059 325.665 211.306 322.269 211.306Z" fill="#F6F4FF"/>
<path d="M424.892 90.6858H388.85C385.455 90.6858 382.702 93.4383 382.702 96.8336V109.975C382.702 113.37 385.455 116.122 388.85 116.122H424.892C428.287 116.122 431.04 113.37 431.04 109.975V96.8336C431.04 93.4383 428.287 90.6858 424.892 90.6858Z" fill="#F6F4FF"/>
<path d="M425.184 211.306H389.142C385.747 211.306 382.994 214.059 382.994 217.454V232.04C382.994 235.435 385.747 238.187 389.142 238.187H425.184C428.579 238.187 431.332 235.435 431.332 232.04V217.454C431.332 214.059 428.579 211.306 425.184 211.306Z" fill="#F6F4FF"/>
<path d="M122.434 211.306H86.3926C82.9972 211.306 80.2448 214.059 80.2448 217.454V232.04C80.2448 235.435 82.9972 238.187 86.3926 238.187H122.434C125.83 238.187 128.582 235.435 128.582 232.04V217.454C128.582 214.059 125.83 211.306 122.434 211.306Z" fill="#F6F4FF"/>
<path d="M425.184 61.084H389.142C385.747 61.084 382.994 63.8365 382.994 67.2318V80.3728C382.994 83.7681 385.747 86.5206 389.142 86.5206H425.184C428.579 86.5206 431.332 83.7681 431.332 80.3728V67.2318C431.332 63.8365 428.579 61.084 425.184 61.084Z" fill="#F6F4FF"/>
<path d="M122.434 35.6013H86.3926C82.9972 35.6013 80.2448 38.3537 80.2448 41.7491V50.3253C80.2448 53.7206 82.9972 56.4731 86.3926 56.4731H122.434C125.83 56.4731 128.582 53.7207 128.582 50.3253V41.7491C128.582 38.3537 125.83 35.6013 122.434 35.6013Z" fill="#68F0AE"/>
<path d="M172.385 35.6013H139.341C135.945 35.6013 133.193 38.3537 133.193 41.7491V50.3253C133.193 53.7206 135.945 56.4731 139.341 56.4731H172.385C175.781 56.4731 178.533 53.7207 178.533 50.3253V41.7491C178.533 38.3537 175.781 35.6013 172.385 35.6013Z" fill="#68F0AE"/>
<path d="M172.385 151.226H139.341C135.945 151.226 133.193 153.979 133.193 157.374V170.515C133.193 173.911 135.945 176.663 139.341 176.663H172.385C175.781 176.663 178.533 173.911 178.533 170.515V157.374C178.533 153.979 175.781 151.226 172.385 151.226Z" fill="#F6F4FF"/>
<path d="M222.352 35.6013H189.307C185.912 35.6013 183.159 38.3537 183.159 41.7491V50.3253C183.159 53.7206 185.912 56.4731 189.307 56.4731H222.352C225.747 56.4731 228.5 53.7207 228.5 50.3253V41.7491C228.5 38.3537 225.747 35.6013 222.352 35.6013Z" fill="#68F0AE"/>
<path d="M222.352 91.1314H189.307C185.912 91.1314 183.159 93.8839 183.159 97.2792V110.42C183.159 113.816 185.912 116.568 189.307 116.568H222.352C225.747 116.568 228.5 113.816 228.5 110.42V97.2792C228.5 93.8839 225.747 91.1314 222.352 91.1314Z" fill="#F6F4FF"/>
<path d="M172.385 181.259H139.341C135.945 181.259 133.193 184.011 133.193 187.406V200.547C133.193 203.943 135.945 206.695 139.341 206.695H172.385C175.781 206.695 178.533 203.943 178.533 200.547V187.406C178.533 184.011 175.781 181.259 172.385 181.259Z" fill="#F6F4FF"/>
<path d="M222.352 61.084H189.307C185.912 61.084 183.159 63.8365 183.159 67.2318V80.3728C183.159 83.7681 185.912 86.5206 189.307 86.5206H222.352C225.747 86.5206 228.5 83.7681 228.5 80.3728V67.2318C228.5 63.8365 225.747 61.084 222.352 61.084Z" fill="#F6F4FF"/>
<path d="M172.908 61.4836H139.863C136.468 61.4836 133.715 64.2361 133.715 67.6315V80.7724C133.715 84.1678 136.468 86.9203 139.863 86.9203H172.908C176.303 86.9203 179.056 84.1678 179.056 80.7724V67.6315C179.056 64.2361 176.303 61.4836 172.908 61.4836Z" fill="#F6F4FF"/>
<path d="M222.352 121.179H189.307C185.912 121.179 183.159 123.931 183.159 127.327V140.468C183.159 143.863 185.912 146.616 189.307 146.616H222.352C225.747 146.616 228.5 143.863 228.5 140.468V127.327C228.5 123.931 225.747 121.179 222.352 121.179Z" fill="#F6F4FF"/>
<path d="M172.385 121.179H139.341C135.945 121.179 133.193 123.931 133.193 127.327V140.468C133.193 143.863 135.945 146.616 139.341 146.616H172.385C175.781 146.616 178.533 143.863 178.533 140.468V127.327C178.533 123.931 175.781 121.179 172.385 121.179Z" fill="#F6F4FF"/>
<path d="M172.385 211.306H139.341C135.945 211.306 133.193 214.059 133.193 217.454V232.04C133.193 235.435 135.945 238.187 139.341 238.187H172.385C175.781 238.187 178.533 235.435 178.533 232.04V217.454C178.533 214.059 175.781 211.306 172.385 211.306Z" fill="#F6F4FF"/>
<path d="M172.385 91.1314H139.341C135.945 91.1314 133.193 93.8839 133.193 97.2792V110.42C133.193 113.816 135.945 116.568 139.341 116.568H172.385C175.781 116.568 178.533 113.816 178.533 110.42V97.2792C178.533 93.8839 175.781 91.1314 172.385 91.1314Z" fill="#F6F4FF"/>
<path d="M222.352 211.306H189.307C185.912 211.306 183.159 214.059 183.159 217.454V232.04C183.159 235.435 185.912 238.187 189.307 238.187H222.352C225.747 238.187 228.5 235.435 228.5 232.04V217.454C228.5 214.059 225.747 211.306 222.352 211.306Z" fill="#F6F4FF"/>
<path d="M87.8508 17.0361C90.3263 17.0361 92.333 15.0293 92.333 12.5539C92.333 10.0785 90.3263 8.07172 87.8508 8.07172C85.3754 8.07172 83.3687 10.0785 83.3687 12.5539C83.3687 15.0293 85.3754 17.0361 87.8508 17.0361Z" fill="#F6F4FF" fill-opacity="0.3"/>
<path d="M108.469 12.5644C108.471 11.677 108.21 10.809 107.718 10.0703C107.226 9.33159 106.526 8.75546 105.707 8.41491C104.887 8.07436 103.985 7.98472 103.115 8.15733C102.244 8.32994 101.445 8.75704 100.817 9.38451C100.19 10.012 99.7627 10.8116 99.5901 11.682C99.4175 12.5525 99.5072 13.4546 99.8477 14.274C100.188 15.0934 100.764 15.7934 101.503 16.2851C102.242 16.7768 103.11 17.0381 103.997 17.0361C105.183 17.0361 106.321 16.5649 107.159 15.7263C107.998 14.8877 108.469 13.7504 108.469 12.5644Z" fill="#F6F4FF" fill-opacity="0.3"/>
<path d="M124.605 12.5644C124.607 11.677 124.345 10.809 123.854 10.0703C123.362 9.33159 122.662 8.75546 121.843 8.41491C121.023 8.07436 120.121 7.98472 119.251 8.15733C118.38 8.32994 117.581 8.75704 116.953 9.38451C116.326 10.012 115.898 10.8116 115.726 11.682C115.553 12.5525 115.643 13.4546 115.983 14.274C116.324 15.0934 116.9 15.7934 117.639 16.2851C118.378 16.7768 119.246 17.0381 120.133 17.0361C121.319 17.0361 122.456 16.5649 123.295 15.7263C124.133 14.8877 124.605 13.7504 124.605 12.5644Z" fill="#F6F4FF" fill-opacity="0.3"/>
<rect x="195.957" y="123.712" width="6.27504" height="8.96435" rx="3.13752" fill="#D4CAFF"/>
<rect x="204.025" y="123.712" width="6.27504" height="8.96435" rx="3.13752" fill="#D4CAFF"/>
<rect x="212.093" y="123.712" width="6.27504" height="8.96435" rx="3.13752" fill="#D4CAFF"/>
<rect x="221.057" y="123.712" width="6.27504" height="8.96435" rx="3.13752" fill="#D4CAFF"/>
<rect x="101.832" y="95.9224" width="6.27504" height="8.96435" rx="3.13752" fill="#D4CAFF"/>
<rect x="109.9" y="95.9224" width="6.27504" height="8.96435" rx="3.13752" fill="#D4CAFF"/>
<rect x="117.968" y="95.9224" width="6.27504" height="8.96435" rx="3.13752" fill="#D4CAFF"/>
<rect x="126.932" y="95.9224" width="6.27504" height="8.96435" rx="3.13752" fill="#D4CAFF"/>
<rect x="334.008" y="123.712" width="6.27504" height="8.96435" rx="3.13752" fill="#D4CAFF"/>
<rect x="342.076" y="123.712" width="6.27504" height="8.96435" rx="3.13752" fill="#D4CAFF"/>
<rect x="350.144" y="123.712" width="6.27504" height="8.96435" rx="3.13752" fill="#D4CAFF"/>
<rect x="359.108" y="123.712" width="6.27504" height="8.96435" rx="3.13752" fill="#D4CAFF"/>
</g>
<path d="M332.167 311.896C332.167 311.896 327.418 338.547 326.695 353.886C325.973 369.225 329.616 380.168 331.076 395.506C332.536 410.845 342.019 469.618 342.019 474.368C342.284 478.805 340.996 483.195 338.376 486.786C335.456 490.798 325.958 494.471 326.695 495.9C327.433 497.33 331.798 499.558 339.467 497.007C347.137 494.456 347.506 491.889 350.426 491.889C353.346 491.889 359.556 490.06 358.449 485.741C357.342 481.422 351.932 472.247 352.301 456.17C353.023 418.93 351.194 354.731 351.194 354.731L362.875 318.951L332.167 311.896Z" fill="white" stroke="#212121" stroke-width="1.53696" stroke-linecap="round" stroke-linejoin="round"/>
<path d="M338.776 486.187L338.376 486.786C335.456 490.798 325.958 494.471 326.695 495.9C327.433 497.33 331.798 499.558 339.468 497.007C347.137 494.456 347.506 491.889 350.426 491.889C353.346 491.889 359.556 490.06 358.449 485.741C358.111 484.358 357.327 482.498 356.436 480.1C352.93 482.772 349.208 485.147 345.308 487.201C343.571 487.847 340.989 487.124 338.776 486.187Z" fill="#212121" stroke="#212121" stroke-width="1.53696" stroke-linecap="round" stroke-linejoin="round"/>
<path d="M364.551 154.512C364.551 154.512 362.829 148.641 361.646 143.415C360.462 138.189 369.331 135.93 379.059 134.962C388.788 133.993 402.544 141.248 406.602 152.775C410.659 164.302 407.247 206.968 407.662 216.282C408.077 225.596 408.999 251.401 399.547 253.015C390.095 254.629 380.151 255.259 371.882 239.06C363.613 222.86 372.681 180.256 373.665 171.695C374.648 163.134 365.042 155.757 365.042 155.757L364.551 154.512Z" fill="#212121" stroke="#212121" stroke-width="1.53696" stroke-linecap="round" stroke-linejoin="round"/>
<path d="M385.33 142.401C385.33 142.401 384.685 152.176 391.201 157.386C397.718 162.596 406.171 174.969 406.171 184.744" stroke="white" stroke-width="0.768478" stroke-linecap="round" stroke-linejoin="round"/>
<path d="M397.718 169.113C397.718 169.113 402.329 186.019 398.364 200.374" stroke="white" stroke-width="0.768478" stroke-linecap="round" stroke-linejoin="round"/>
<path d="M347.567 316.476C347.567 316.476 339.883 351.211 346.968 381.228C348.904 389.435 378.767 463.056 381.119 474.829C383.471 486.602 383.471 497.207 388.189 501.326C392.907 505.445 395.874 503.677 393.476 490.137C391.867 482.575 389.284 475.255 385.791 468.358C385.791 468.358 376.954 411.844 375.77 399.487C374.587 387.13 367.532 372.406 367.532 372.406L378.721 324.13L347.567 316.476Z" fill="white" stroke="#212121" stroke-width="1.53696" stroke-linecap="round" stroke-linejoin="round"/>
<path d="M391.954 483.758C391.386 486.832 390.156 489.491 387.59 488.984C386.388 488.754 385.28 488.176 384.405 487.32C383.531 486.464 382.927 485.37 382.671 484.173C383.824 491.95 384.762 498.359 388.189 501.341C392.892 505.46 395.874 503.693 393.476 490.152C393.091 487.994 392.583 485.859 391.954 483.758Z" fill="#212121" stroke="#212121" stroke-width="1.53696" stroke-linecap="round" stroke-linejoin="round"/>
<path d="M382.302 480.684H382.164C382.164 480.961 382.241 481.238 382.287 481.499C382.278 481.227 382.284 480.955 382.302 480.684Z" fill="#212121" stroke="#212121" stroke-width="1.53696" stroke-linecap="round" stroke-linejoin="round"/>
<path d="M358.218 197.408C354.534 198.291 351.319 200.53 349.212 203.679C346.138 208.766 317.504 230.299 314.769 232.635C312.033 234.971 312.417 246.729 319.38 246.729C326.342 246.729 349.919 228.731 349.919 228.731C349.919 228.731 356.958 220.109 359.31 212.286C361.661 204.463 363.306 198.192 358.218 197.408Z" fill="white" stroke="#212121" stroke-width="1.53696" stroke-linecap="round" stroke-linejoin="round"/>
<path d="M366.041 177.459C363.306 177.459 360.601 183.883 360.601 183.883L358.018 184.267C360.339 181.516 363.306 177.459 363.306 177.459C365.642 173.539 364.843 167.668 363.306 168.068C361.769 168.467 351.563 172.371 349.996 174.323C348.428 176.275 343.725 191.937 342.172 193.504C340.62 195.072 314.769 227.947 312.033 235.002C309.297 242.057 316.721 250.664 322.991 246.36C329.262 242.057 334.734 228.731 337.101 219.402C339.467 210.073 349.242 192.382 349.242 192.382C349.242 192.382 351.517 190.538 353.853 188.478C356.406 187.835 358.92 187.05 361.384 186.127C362.921 185.343 367.256 179.856 367.256 179.856C367.256 179.856 368.777 177.459 366.041 177.459Z" fill="white" stroke="#212121" stroke-width="1.53696" stroke-linecap="round" stroke-linejoin="round"/>
<path d="M359.463 164.794L351.532 177.366C351.109 178.038 350.946 178.842 351.073 179.626C351.2 180.41 351.61 181.12 352.224 181.624L355.836 184.59C356.187 184.877 356.594 185.087 357.031 185.207C357.469 185.327 357.926 185.355 358.374 185.289C358.823 185.222 359.252 185.063 359.636 184.821C360.019 184.579 360.348 184.259 360.6 183.883L369.008 171.418C369.475 170.722 369.657 169.874 369.517 169.047C369.377 168.221 368.925 167.48 368.255 166.976L364.166 163.903C363.805 163.635 363.392 163.445 362.954 163.344C362.516 163.244 362.061 163.236 361.62 163.319C361.178 163.403 360.758 163.577 360.387 163.831C360.016 164.085 359.701 164.413 359.463 164.794Z" fill="#212121" stroke="black" stroke-width="1.53696" stroke-linecap="round" stroke-linejoin="round"/>
<path d="M386.621 170.511C386.621 170.511 384.331 185.189 383.686 190.799C383.04 196.409 383.209 197.623 387.928 198.161C392.646 198.699 400.439 201.097 403.497 208.321C406.556 215.544 388.788 237.415 383.517 242.134C378.245 246.852 375.893 253.215 377.061 258.195C378.23 263.174 392.016 279.282 391.417 295.62C390.817 311.957 371.067 359.588 371.067 359.588C371.067 359.588 344.739 348.921 325.727 352.487C325.727 352.487 334.703 289.38 340.036 272.75C345.369 256.12 350.795 247.113 350.365 243.548C349.934 239.982 343.295 229.577 344.908 220.785C346.522 211.994 352.194 204.294 354.837 199.514C357.481 194.734 363.152 194.795 365.212 195.026C367.271 195.256 370.191 195.902 371.651 193.673C373.112 191.445 374.418 179.948 374.418 179.948L386.621 170.511Z" fill="#212121" stroke="#212121" stroke-width="1.53696" stroke-linecap="round" stroke-linejoin="round"/>
<path d="M356.036 234.234L367.747 242.702" stroke="#212121" stroke-width="1.53696" stroke-linecap="round" stroke-linejoin="round"/>
<path d="M366.871 270.844C366.871 270.844 355.129 293.253 352.47 309.268" stroke="#212121" stroke-width="1.53696" stroke-linecap="round" stroke-linejoin="round"/>
<path d="M353.008 293.791C353.008 293.791 349.796 307.623 348.197 319.919" stroke="#212121" stroke-width="1.53696" stroke-linecap="round" stroke-linejoin="round"/>
<path d="M399.317 204.032C399.317 204.032 395.397 206 391.094 212.655C386.79 219.31 382.871 230.652 383.655 233.388C384.439 236.124 391.878 231.436 391.878 231.436C391.878 231.436 399.732 266.648 406.74 263.928C420.834 258.441 402.052 206.784 402.052 206.784C402.052 206.784 402.052 204.847 399.317 204.032Z" fill="white" stroke="#212121" stroke-width="1.53696" stroke-linecap="round" stroke-linejoin="round"/>
<path d="M369.054 208.843C361.092 206.876 363.213 199.283 365.196 195.011H365.273C367.348 195.256 370.253 195.887 371.713 193.658C373.173 191.429 374.479 179.933 374.479 179.933L386.621 170.573C386.621 170.573 384.331 185.251 383.686 190.861C383.04 196.471 383.209 197.685 387.928 198.223C387.928 198.161 380.397 211.717 369.054 208.843Z" fill="white" stroke="#212121" stroke-width="1.53696" stroke-linecap="round" stroke-linejoin="round"/>
<path d="M375.878 141.77C375.131 145.943 375.573 150.241 377.154 154.174C379.782 159.86 390.986 166.469 390.986 166.469C390.986 166.469 395.397 161.858 396.043 166.761C396.688 171.664 394.613 176.459 391.34 176.383C388.066 176.306 387.59 172.663 387.59 172.663C384.686 176.885 380.422 179.983 375.509 181.439C366.81 184.313 362.384 183.806 361.354 177.12C360.324 170.435 361.523 162.781 364.566 154.466C367.609 146.151 374.664 141.924 375.878 141.77Z" fill="white" stroke="#212121" stroke-width="1.53696" stroke-linecap="round" stroke-linejoin="round"/>
<path d="M408.308 198.976L408.707 192.72C410.641 191.005 412.469 189.172 414.179 187.234C416.53 184.498 418.098 180.579 420.05 182.146C422.002 183.714 417.314 188.417 417.314 188.417L416.915 191.491L424.753 189.155C424.753 189.155 432.192 181.716 432.576 183.668C432.96 185.62 428.657 192.275 425.537 195.81C422.417 199.345 413.011 200.421 413.011 200.421C413.011 200.421 412.611 231.728 412.611 241.135C412.611 250.541 411.443 261.115 408.707 263.052C405.972 264.988 397.349 263.436 399.317 248.174C401.284 232.912 408.308 198.976 408.308 198.976Z" fill="white" stroke="#212121" stroke-width="1.53696" stroke-linecap="round" stroke-linejoin="round"/>
<path d="M391.878 231.467L389.526 224.028" stroke="#212121" stroke-width="1.53696" stroke-linecap="round" stroke-linejoin="round"/>
<path d="M173.979 141.473C173.979 141.473 181.034 150.418 181.756 152.385C182.266 153.818 182.687 155.281 183.017 156.766L187.628 160.178C187.773 160.282 187.895 160.415 187.986 160.568C188.078 160.722 188.137 160.892 188.16 161.07C188.183 161.247 188.17 161.427 188.12 161.599C188.071 161.77 187.987 161.93 187.874 162.068L184.385 166.356C184.385 166.356 187.628 177.115 187.459 178.652C187.289 180.189 176.024 184.016 176.024 184.016L174.978 192.254L153.615 191.977L153.538 176.715L145.008 156.735C145.008 156.735 152.646 142.318 173.979 141.473Z" fill="white" stroke="#212121" stroke-width="1.53696" stroke-linecap="round" stroke-linejoin="round"/>
<path d="M170.291 171.582L173.165 171.274C173.458 172.553 174.01 173.759 174.788 174.816C175.565 175.874 176.55 176.761 177.684 177.422" fill="white"/>
<path d="M170.291 171.582L173.165 171.274C173.458 172.553 174.01 173.759 174.788 174.816C175.565 175.874 176.55 176.761 177.684 177.422" stroke="#212121" stroke-width="1.53696" stroke-linecap="round" stroke-linejoin="round"/>
<path d="M149.542 141.98C149.542 141.98 141.473 142.364 141.519 153.538C141.565 164.712 152.877 175.055 153.492 176.7C154.107 178.344 160.162 177.576 164.42 175.993C166.801 175.217 168.852 173.663 170.245 171.582C170.245 171.582 166.172 165.649 167.002 163.897C167.832 162.145 172.197 163.82 172.197 163.82C173.163 163.272 174.035 162.571 174.779 161.745C175.516 160.716 179.466 156.274 176.731 153.938C173.995 151.601 169.737 150.187 171.628 147.236C173.518 144.285 180.281 141.411 178.298 135.064C176.316 128.716 171.889 128.916 168.2 130.991C164.512 133.066 163.497 126.38 156.32 130.176C149.142 133.972 147.129 139.521 149.542 141.98Z" fill="#212121" stroke="#212121" stroke-width="1.53696" stroke-linecap="round" stroke-linejoin="round"/>
<path d="M158.979 163.866C158.826 165.05 158.826 166.248 158.979 167.432" stroke="white" stroke-width="0.768478" stroke-linecap="round" stroke-linejoin="round"/>
<path d="M171.428 145.915C171.428 145.915 169.891 148.758 163.743 154.276C161.589 156.209 160.058 158.739 159.348 161.546" stroke="white" stroke-width="0.768478" stroke-linecap="round" stroke-linejoin="round"/>
<path d="M172.873 151.555C172.873 151.555 166.617 160.039 163.328 162.56" stroke="white" stroke-width="0.768478" stroke-linecap="round" stroke-linejoin="round"/>
<path d="M240.594 150.712C240.594 153.002 245.817 162.852 245.817 162.852L234.074 192.915L231.031 212.772C231.031 212.772 240.745 217.614 242.789 214.862C244.833 212.111 245.602 210.159 248.675 200.769C251.749 191.378 252.917 164.066 252.917 164.066" stroke="#212121" stroke-width="1.53696" stroke-linecap="round" stroke-linejoin="round"/>
<path d="M242.809 157.007C242.374 155.952 241.49 154.746 241.181 153.647C240.49 152.326 240.483 150.512 240.605 149.932C240.778 149.018 241.895 147.168 242.809 147.168C243.618 147.121 244.42 146.998 245.206 146.802C246.407 145.269 247.516 143.667 248.528 142.004C248.894 141.079 250.194 137.207 251.849 137.207C253.505 137.207 252.581 140.896 252.215 142.004C251.849 143.112 251.839 143.468 252.581 143.844C253.322 144.22 255.902 143.661 256.827 146.06C257.751 148.459 258.858 148.459 259.224 149.567C259.558 151.369 259.364 153.229 258.665 154.923C257.934 156.763 253.666 163.07 252.924 163.629" stroke="#212121" stroke-width="1.53839" stroke-linecap="round" stroke-linejoin="round"/>
<path d="M180.388 482.969L199.493 489.916C199.94 490.069 200.351 490.314 200.699 490.635C201.046 490.956 201.323 491.346 201.511 491.78C201.699 492.214 201.795 492.682 201.791 493.156C201.788 493.629 201.685 494.096 201.491 494.527C201.228 495.053 200.77 495.455 200.215 495.649C197.787 496.525 172.55 505.178 165.188 502.058C164.437 501.68 163.803 501.103 163.356 500.391C162.909 499.678 162.666 498.857 162.652 498.016C162.896 492.345 163.517 486.697 164.512 481.109C164.512 481.109 173.887 485.551 180.388 482.969Z" fill="#212121" stroke="#212121" stroke-width="1.53696" stroke-linecap="round" stroke-linejoin="round"/>
<path d="M201.522 494.542C201.723 494.141 201.835 493.701 201.848 493.252C201.861 492.803 201.776 492.357 201.598 491.945C196.311 494.512 185.076 499.322 174.84 499.507C170.774 499.757 166.694 499.41 162.729 498.477C162.827 499.232 163.103 499.952 163.537 500.578C163.97 501.204 164.547 501.716 165.219 502.073C172.627 505.147 197.818 496.54 200.246 495.664C200.801 495.471 201.259 495.068 201.522 494.542Z" fill="white" stroke="#212121" stroke-width="1.53696" stroke-linecap="round" stroke-linejoin="round"/>
<path d="M127.425 477.159C127.425 477.159 125.704 493.005 126.626 494.573C127.548 496.141 130.299 497.201 135.033 496.894C136.484 496.862 137.888 496.374 139.047 495.5C140.206 494.625 141.06 493.408 141.488 492.022C141.919 490.884 140.812 480.525 140.781 478.712C140.751 476.898 127.425 477.159 127.425 477.159Z" fill="#212121" stroke="#212121" stroke-width="1.53696" stroke-linecap="round" stroke-linejoin="round"/>
<path d="M141.534 489.055C140.074 491.868 138.215 493.666 133.389 493.758C130.907 493.859 128.452 493.205 126.349 491.883C126.278 492.789 126.372 493.701 126.626 494.573C127.563 496.11 130.299 497.201 135.033 496.894C136.484 496.862 137.888 496.374 139.047 495.5C140.206 494.625 141.06 493.408 141.488 492.022C141.622 491.038 141.638 490.042 141.534 489.055Z" fill="white" stroke="#212121" stroke-width="1.53696" stroke-linecap="round" stroke-linejoin="round"/>
<path d="M190.609 294.83C186.123 297.049 181.393 298.736 176.515 299.856L134.142 290.066C134.142 290.066 131.329 313.827 131.406 317.915C131.483 322.004 132.943 395.578 132.943 395.578L127.164 478.266C127.763 479.499 128.709 480.531 129.885 481.235C131.062 481.94 132.418 482.286 133.788 482.231C136.6 482.218 139.377 481.605 141.934 480.433L160.101 394.364L164.143 485.736C164.143 485.736 166.648 488.149 172.366 488.026C174.039 487.97 175.669 487.473 177.088 486.585C178.508 485.697 179.668 484.45 180.45 482.969C180.45 482.969 183.263 447.619 187.459 422.321C191.654 397.023 192.162 327.383 192.162 327.383L190.609 294.83Z" fill="white" stroke="#212121" stroke-width="1.53696" stroke-linecap="round" stroke-linejoin="round"/>
<path d="M150.31 307.295C155.868 308.5 161.531 309.154 167.217 309.247" stroke="#212121" stroke-width="1.53696" stroke-linecap="round" stroke-linejoin="round"/>
<path d="M134.603 302.73C134.603 302.73 136.57 305.343 141.78 305.343" stroke="#212121" stroke-width="1.53696" stroke-linecap="round" stroke-linejoin="round"/>
<path d="M177.591 460.991C177.591 460.991 181.495 414.098 184.108 380.239C185.685 360.296 185.9 340.27 184.754 320.298C184.754 320.298 191.27 313.135 186.705 300.763" stroke="#212121" stroke-width="1.53696" stroke-linecap="round" stroke-linejoin="round"/>
<path d="M177.591 466.201L175.639 481.186" stroke="#212121" stroke-width="1.53696" stroke-linecap="round" stroke-linejoin="round"/>
<path d="M160.055 394.379L155.413 332.993L144.577 322.572" stroke="#212121" stroke-width="1.53696" stroke-linecap="round" stroke-linejoin="round"/>
<path d="M137.354 261.14C137.578 260.441 137.569 259.689 137.328 258.995C137.086 258.302 136.626 257.706 136.017 257.298C131.313 254.116 119.909 247.569 116.267 256.191C115.202 259.556 114.461 263.014 114.053 266.52C113.039 273.42 113.408 320.144 113.454 324.924C113.455 325.183 113.424 325.441 113.362 325.692C112.962 327.521 111.287 335.513 112.455 340.278C113.761 345.704 116.267 349.884 120.524 351.037C124.781 352.189 127.102 347.271 126.441 344.259C125.78 341.246 127.364 338.91 126.703 335.898C126.165 333.469 123.859 327.122 122.983 324.77C122.772 324.19 122.719 323.564 122.829 322.957C124.028 316.809 130.745 282.335 131.252 280.675C131.759 279.015 135.694 266.504 137.354 261.14Z" fill="white" stroke="#212121" stroke-width="1.53696" stroke-linecap="round" stroke-linejoin="round"/>
<path d="M119.248 341.308C119.248 341.308 124.674 345.104 125.304 348.608" stroke="#212121" stroke-width="1.53696" stroke-linecap="round" stroke-linejoin="round"/>
<path d="M120.97 338.157C120.97 338.157 125.273 340.97 126.426 343.183" stroke="#212121" stroke-width="1.53696" stroke-linecap="round" stroke-linejoin="round"/>
<path d="M121.754 334.976L123.29 337.097C123.29 337.097 124.059 345.55 126.457 344.289C128.854 343.029 127.44 332.778 127.44 332.778C127.44 332.778 126.226 330.272 122.476 324.294" fill="white"/>
<path d="M121.754 334.976L123.29 337.097C123.29 337.097 124.059 345.55 126.457 344.289C128.854 343.029 127.44 332.778 127.44 332.778C127.44 332.778 126.226 330.272 122.476 324.294" stroke="#212121" stroke-width="1.53696" stroke-linecap="round" stroke-linejoin="round"/>
<path d="M121.477 326.138C122.306 329.167 122.231 332.373 121.262 335.36C119.878 337.961 118.338 340.476 116.651 342.891C118.904 345.046 121.015 347.346 122.968 349.776" stroke="#212121" stroke-width="1.53696" stroke-linecap="round" stroke-linejoin="round"/>
<path d="M124.182 205.687L110.242 256.914C110.242 256.914 121.907 266.366 136.37 266.135L145.699 217.506C145.699 217.506 135.279 194.098 124.182 205.687Z" fill="#212121" stroke="#212121" stroke-width="1.53696" stroke-linecap="round" stroke-linejoin="round"/>
<path d="M147.236 188.888C147.236 188.888 126.764 199.063 124.843 203.673C123.306 207.516 128.009 234.72 128.101 239.5C128.194 244.28 132.282 285.347 133.388 293.293C134.495 301.239 161.054 304.621 171.167 301.562C181.28 298.504 190.671 297.335 190.609 294.784C190.548 292.233 189.195 270.623 189.749 266.489C190.302 262.354 194.59 231.339 194.59 231.339L233.183 223.346C233.183 223.346 234.966 222.271 235.012 215.293C235.018 208.707 234.679 202.124 233.998 195.574C228.999 196.773 223.829 197.095 218.72 196.527C209.406 195.697 198.371 193.191 196.404 193.745C194.436 194.298 181.034 191.501 176.623 190.947C170.491 190.117 154.921 184.923 147.236 188.888Z" fill="#212121" stroke="#212121" stroke-width="1.53696" stroke-linecap="round" stroke-linejoin="round"/>
<path d="M130.053 263.661L124.689 218.674" stroke="white" stroke-width="0.768478" stroke-linecap="round" stroke-linejoin="round"/>
<path d="M126.149 238.255L123.537 232.399" stroke="white" stroke-width="0.768478" stroke-linecap="round" stroke-linejoin="round"/>
<path d="M194.59 231.262L179.543 233.69" stroke="white" stroke-width="0.768478" stroke-linecap="round" stroke-linejoin="round"/>
<path d="M191.27 232.399L180.204 242.82" stroke="white" stroke-width="0.768478" stroke-linecap="round" stroke-linejoin="round"/>
<path d="M225.129 197.879C225.129 197.879 214.709 213.51 189.318 219.397" stroke="white" stroke-width="0.768478" stroke-linecap="round" stroke-linejoin="round"/>
<defs>
<filter id="filter0_d_2063_2530" x="63.7838" y="0.231567" width="402.05" height="272.223" filterUnits="userSpaceOnUse" color-interpolation-filters="sRGB">
<feFlood flood-opacity="0" result="BackgroundImageFix"/>
<feColorMatrix in="SourceAlpha" type="matrix" values="0 0 0 0 0 0 0 0 0 0 0 0 0 0 0 0 0 0 127 0" result="hardAlpha"/>
<feOffset dx="11" dy="11"/>
<feGaussianBlur stdDeviation="1.1"/>
<feComposite in2="hardAlpha" operator="out"/>
<feColorMatrix type="matrix" values="0 0 0 0 0 0 0 0 0 0 0 0 0 0 0 0 0 0 0.17 0"/>
<feBlend mode="normal" in2="BackgroundImageFix" result="effect1_dropShadow_2063_2530"/>
<feBlend mode="normal" in="SourceGraphic" in2="effect1_dropShadow_2063_2530" result="shape"/>
</filter>
</defs>
</svg>
