<svg width="234" height="245" viewBox="0 0 234 245" fill="none" xmlns="http://www.w3.org/2000/svg">
<g clip-path="url(#clip0_116_1930)">
<path fill-rule="evenodd" clip-rule="evenodd" d="M116.511 222.404C169.087 222.592 211.86 180.123 212.048 127.547C212.235 74.9706 169.766 32.1973 117.19 32.0098C64.6141 31.8223 21.8408 74.2915 21.6533 126.867C21.4657 179.443 63.935 222.217 116.511 222.404Z" stroke="#3AD29F" stroke-width="0.641063" stroke-dasharray="3.85 3.85"/>
<path fill-rule="evenodd" clip-rule="evenodd" d="M116.439 242.598C180.167 242.825 232.014 191.347 232.241 127.619C232.468 63.8903 180.991 12.044 117.262 11.8166C53.5336 11.5893 1.68724 63.0671 1.45992 126.796C1.2326 190.524 52.7104 242.37 116.439 242.598Z" stroke="#3AD29F" stroke-width="0.641063" stroke-dasharray="3.85 3.85"/>
<path d="M193.948 164.244C193.999 150.81 183.818 139.543 170.447 138.238C157.076 136.932 144.908 146.017 142.36 159.207L62.3666 156.752L63.1958 170.499C63.1958 170.499 51.6942 196.78 111.624 204.007L111.529 230.611L180.841 230.859L180.998 186.626C188.979 181.99 193.907 173.473 193.948 164.244Z" fill="url(#paint0_linear_116_1930)"/>
<path d="M65.9407 171.086C65.9407 171.086 54.9271 196.253 112.32 203.183L112.229 228.671L178.607 228.908L178.848 161.408L65.135 157.919L65.9407 171.086Z" fill="#FFCBB4"/>
<path d="M99.4906 66.0162C95.8673 71.6889 88.3428 73.3706 82.6492 69.78L47.0933 46.1677C41.4205 42.5444 39.7389 35.0199 43.3294 29.3263C46.9522 23.6613 54.4671 21.9806 60.158 25.5624L95.7139 49.1747C101.391 52.7938 103.079 60.3192 99.4906 66.0162Z" fill="url(#paint1_linear_116_1930)"/>
<path d="M97.5208 64.727C94.1528 70 87.1588 71.5632 81.8663 68.2259L48.8047 46.2604C43.5318 42.8924 41.9686 35.8984 45.3059 30.6059C48.6739 25.333 55.6679 23.7698 60.9604 27.107L94.0156 49.0597C99.2986 52.4261 100.866 59.4303 97.5208 64.727Z" fill="#FFCBB4"/>
<path d="M166.146 189.932C179.913 189.981 191.113 178.86 191.162 165.093C191.211 151.326 180.091 140.126 166.324 140.077C152.557 140.028 141.356 151.148 141.307 164.915C141.258 178.682 152.379 189.883 166.146 189.932Z" fill="#FFCBB4"/>
<path d="M162.334 0.575944L66.8417 0.235319C64.6732 0.227584 62.909 1.97926 62.9012 4.1478L62.2638 182.83C62.2561 184.999 64.0078 186.763 66.1763 186.771L161.668 187.111C163.837 187.119 165.601 185.367 165.609 183.199L166.246 4.51643C166.254 2.3479 164.502 0.583679 162.334 0.575944Z" fill="url(#paint2_linear_116_1930)"/>
<path d="M160.479 3.09185L68.6726 2.76437C66.258 2.75576 64.2936 4.7062 64.285 7.1208L63.6688 179.873C63.6602 182.288 65.6106 184.252 68.0252 184.261L159.831 184.588C162.246 184.597 164.21 182.647 164.219 180.232L164.835 7.47947C164.844 5.06487 162.893 3.10046 160.479 3.09185Z" fill="white"/>
<path d="M139.82 7.56977C139.205 11.5448 135.782 14.4767 131.76 14.4742L97.0337 14.3503C93.0127 14.3226 89.6126 11.3667 89.026 7.38858L70.6276 7.32295C69.6146 7.31934 68.6413 7.71685 67.9222 8.43031C67.203 9.14376 66.7969 10.1138 66.7933 11.1268L66.2056 175.879C66.202 176.892 66.5995 177.865 67.3129 178.584C68.0264 179.304 68.9964 179.71 70.0095 179.713L157.879 180.027C158.892 180.03 159.866 179.633 160.585 178.919C161.304 178.206 161.71 177.236 161.714 176.223L162.301 11.4707C162.305 10.4577 161.907 9.48445 161.194 8.76528C160.481 8.04611 159.511 7.64 158.498 7.63639L139.82 7.56977Z" fill="#E9ECFF"/>
<path d="M125.257 9.68787L104.131 9.61252C103.777 9.61125 103.489 9.89724 103.488 10.2513L103.488 10.3699C103.486 10.7239 103.772 11.012 104.126 11.0132L125.252 11.0886C125.606 11.0899 125.894 10.8039 125.896 10.4498L125.896 10.3312C125.897 9.97717 125.611 9.68914 125.257 9.68787Z" fill="#DBDBDB"/>
<path d="M130.652 11.3123C131.229 11.3144 131.698 10.8485 131.7 10.2718C131.703 9.69507 131.237 9.22587 130.66 9.22382C130.083 9.22176 129.614 9.68762 129.612 10.2644C129.61 10.8411 130.076 11.3103 130.652 11.3123Z" fill="#DBDBDB"/>
<path d="M182.332 169.459C175.092 171.107 170.144 166.371 168.496 159.134L152.094 97.3501C150.466 90.085 155.009 82.8686 162.264 81.1962C169.529 79.5682 176.746 84.1117 178.418 91.3667L191.757 154.732C193.404 161.973 189.569 167.812 182.332 169.459Z" fill="url(#paint3_linear_116_1930)"/>
<path d="M176.548 92.871C175.159 86.7619 169.081 82.9352 162.972 84.3238C156.863 85.7123 153.036 91.7904 154.425 97.8995L169.474 164.109C170.863 170.218 176.941 174.045 183.05 172.656C189.159 171.267 192.985 165.189 191.597 159.08L176.548 92.871Z" fill="#FFCBB4"/>
<path d="M190.858 220.612L95.9818 220.273L95.9029 242.39L190.78 242.728L190.858 220.612Z" fill="url(#paint4_linear_116_1930)"/>
<path d="M188.285 223.167L98.537 222.847L98.4752 240.155L188.223 240.475L188.285 223.167Z" fill="#4D8AF0"/>
<path d="M85.4204 132.182C81.8411 137.787 74.4066 139.449 68.7811 135.901L44.9344 120.351C39.3291 116.771 37.6671 109.337 41.2147 103.711C44.794 98.106 52.2285 96.444 57.854 99.9916L81.7007 115.542C87.306 119.122 88.968 126.556 85.4204 132.182Z" fill="url(#paint5_linear_116_1930)"/>
<path d="M79.3034 164.896C75.6921 170.553 68.1899 172.23 62.5133 168.65L47.7465 157.802C42.0898 154.191 40.4122 146.689 43.9921 141.012C47.6033 135.355 55.1055 133.678 60.7822 137.258L75.5489 148.109C81.2037 151.72 82.8811 159.22 79.3034 164.896Z" fill="url(#paint6_linear_116_1930)"/>
<g opacity="0.5">
<path d="M114.149 122.505C130.071 122.562 143.024 109.701 143.08 93.7792C143.137 77.8578 130.276 64.9048 114.355 64.848C98.4333 64.7912 85.4804 77.6521 85.4236 93.5736C85.3668 109.495 98.2277 122.448 114.149 122.505Z" fill="url(#paint7_linear_116_1930)"/>
</g>
<path d="M114.155 120.809C129.14 120.863 141.331 108.758 141.385 93.7732C141.438 78.7881 129.334 66.597 114.349 66.5436C99.3637 66.4901 87.1726 78.5946 87.1192 93.5796C87.0657 108.565 99.1701 120.756 114.155 120.809Z" fill="#69F0AE"/>
<path d="M102.489 90.0124L112.629 99.3761L127.119 78.2309L132.194 82.4897L112.599 107.857L98.2419 91.6961L102.489 90.0124Z" fill="white"/>
<path d="M78.1106 164.087C74.7426 169.36 67.7486 170.923 62.4561 167.586L48.6836 157.485C43.4106 154.117 41.8474 147.123 45.1847 141.831C48.5527 136.558 55.5468 134.994 60.8392 138.332L74.6085 148.452C79.8709 151.818 81.4343 158.798 78.1106 164.087Z" fill="#FFCBB4"/>
<path d="M84.1093 131.328C80.7413 136.601 73.7472 138.164 68.4548 134.827L46.0184 120.194C40.7454 116.826 39.1822 109.832 42.5195 104.54C45.8875 99.2669 52.8816 97.7037 58.174 101.041L80.6104 115.673C85.8834 119.041 87.4466 126.035 84.1093 131.328Z" fill="#FFCBB4"/>
<path d="M91.7164 99.6221C88.1194 105.252 80.6514 106.921 75.0001 103.358L44.7804 83.5273C39.1505 79.9304 37.4817 72.4623 41.0449 66.811C44.6419 61.1811 52.1099 59.5123 57.7613 63.0755L87.9809 82.9057C93.6108 86.5027 95.2797 93.9708 91.7164 99.6221Z" fill="url(#paint8_linear_116_1930)"/>
<path d="M90.111 98.5905C86.743 103.863 79.7489 105.427 74.4565 102.089L46.1523 83.5161C40.8794 80.1481 39.3162 73.154 42.6535 67.8616C46.0215 62.5887 53.0155 61.0254 58.308 64.3627L86.6089 82.936C91.883 86.303 93.4477 93.2973 90.111 98.5905Z" fill="#FFCBB4"/>
</g>
<defs>
<linearGradient id="paint0_linear_116_1930" x1="127.912" y1="230.686" x2="128.242" y2="137.976" gradientUnits="userSpaceOnUse">
<stop stop-color="#808080" stop-opacity="0.25"/>
<stop offset="0.54" stop-color="#808080" stop-opacity="0.12"/>
<stop offset="1" stop-color="#808080" stop-opacity="0.1"/>
</linearGradient>
<linearGradient id="paint1_linear_116_1930" x1="71.3214" y1="71.6083" x2="71.4922" y2="23.7405" gradientUnits="userSpaceOnUse">
<stop stop-color="#808080" stop-opacity="0.25"/>
<stop offset="0.54" stop-color="#808080" stop-opacity="0.12"/>
<stop offset="1" stop-color="#808080" stop-opacity="0.1"/>
</linearGradient>
<linearGradient id="paint2_linear_116_1930" x1="113.922" y1="186.938" x2="114.588" y2="0.402429" gradientUnits="userSpaceOnUse">
<stop stop-color="#808080" stop-opacity="0.25"/>
<stop offset="0.54" stop-color="#808080" stop-opacity="0.12"/>
<stop offset="1" stop-color="#808080" stop-opacity="0.1"/>
</linearGradient>
<linearGradient id="paint3_linear_116_1930" x1="171.792" y1="169.755" x2="172.109" y2="80.8852" gradientUnits="userSpaceOnUse">
<stop stop-color="#808080" stop-opacity="0.25"/>
<stop offset="0.54" stop-color="#808080" stop-opacity="0.12"/>
<stop offset="1" stop-color="#808080" stop-opacity="0.1"/>
</linearGradient>
<linearGradient id="paint4_linear_116_1930" x1="143.348" y1="242.553" x2="143.427" y2="220.436" gradientUnits="userSpaceOnUse">
<stop stop-color="#808080" stop-opacity="0.25"/>
<stop offset="0.54" stop-color="#808080" stop-opacity="0.12"/>
<stop offset="1" stop-color="#808080" stop-opacity="0.1"/>
</linearGradient>
<linearGradient id="paint5_linear_116_1930" x1="63.2422" y1="137.725" x2="63.3833" y2="98.1715" gradientUnits="userSpaceOnUse">
<stop stop-color="#808080" stop-opacity="0.25"/>
<stop offset="0.54" stop-color="#808080" stop-opacity="0.12"/>
<stop offset="1" stop-color="#808080" stop-opacity="0.1"/>
</linearGradient>
<linearGradient id="paint6_linear_116_1930" x1="61.5867" y1="170.506" x2="61.712" y2="135.399" gradientUnits="userSpaceOnUse">
<stop stop-color="#808080" stop-opacity="0.25"/>
<stop offset="0.54" stop-color="#808080" stop-opacity="0.12"/>
<stop offset="1" stop-color="#808080" stop-opacity="0.1"/>
</linearGradient>
<linearGradient id="paint7_linear_116_1930" x1="114.149" y1="122.505" x2="114.355" y2="64.8448" gradientUnits="userSpaceOnUse">
<stop stop-color="#808080" stop-opacity="0.25"/>
<stop offset="0.54" stop-color="#808080" stop-opacity="0.12"/>
<stop offset="1" stop-color="#808080" stop-opacity="0.1"/>
</linearGradient>
<linearGradient id="paint8_linear_116_1930" x1="66.3007" y1="105.189" x2="66.4574" y2="61.2667" gradientUnits="userSpaceOnUse">
<stop stop-color="#808080" stop-opacity="0.25"/>
<stop offset="0.54" stop-color="#808080" stop-opacity="0.12"/>
<stop offset="1" stop-color="#808080" stop-opacity="0.1"/>
</linearGradient>
<clipPath id="clip0_116_1930">
<rect width="232.871" height="243.314" fill="white" transform="translate(0.86792) rotate(0.204376)"/>
</clipPath>
</defs>
</svg>
