<svg width="514" height="498" viewBox="0 0 514 498" fill="none" xmlns="http://www.w3.org/2000/svg">
<g clip-path="url(#clip0_86_4502)">
<path d="M368.486 498C448.851 498 514 491.986 514 484.567C514 477.148 448.851 471.134 368.486 471.134C288.121 471.134 222.973 477.148 222.973 484.567C222.973 491.986 288.121 498 368.486 498Z" fill="white"/>
<path opacity="0.1" d="M368.486 498C448.851 498 514 491.986 514 484.567C514 477.148 448.851 471.134 368.486 471.134C288.121 471.134 222.973 477.148 222.973 484.567C222.973 491.986 288.121 498 368.486 498Z" fill="#292A2E"/>
<path d="M126.927 284.809H80.5442V298.31H126.927V284.809Z" fill="#F4F4F4"/>
<path opacity="0.05" d="M92.8505 284.809H86.7729V298.31H92.8505V284.809Z" fill="#292A2E"/>
<path d="M121 287.743H95.7296V295.744H121V287.743Z" fill="white"/>
<path d="M163.924 286.57L120.826 267.738L115.424 280.111L158.522 298.943L163.924 286.57Z" fill="#F4F4F4"/>
<path opacity="0.05" d="M163.924 286.57L120.826 267.738L115.424 280.111L158.522 298.943L163.924 286.57Z" fill="#292A2E"/>
<path d="M158.137 284.041L152.489 281.573L147.088 293.947L152.735 296.414L158.137 284.041Z" fill="white"/>
<path d="M148.64 283.094L125.159 272.834L121.958 280.166L145.439 290.426L148.64 283.094Z" fill="white"/>
<path opacity="0.05" d="M164.005 455.848H152.349V463.636H164.005V455.848Z" fill="#292A2E"/>
<path opacity="0.05" d="M44.8332 455.848H33.1771V463.636H44.8332V455.848Z" fill="#292A2E"/>
<path d="M174.69 298.943H22.4928V455.584H174.69V298.943Z" fill="#F4F4F4"/>
<path opacity="0.03" d="M174.69 298.943H22.4928V455.584H174.69V298.943Z" fill="#292A2E"/>
<path d="M202.894 298.943H50.697V455.584H202.894V298.943Z" fill="#F4F4F4"/>
<path opacity="0.05" d="M192.209 455.848H180.553V463.636H192.209V455.848Z" fill="#292A2E"/>
<path opacity="0.05" d="M73.0381 455.848H61.382V463.636H73.0381V455.848Z" fill="#292A2E"/>
<path opacity="0.7" d="M197.181 306.28H56.4108V336.374H197.181V306.28Z" fill="white"/>
<path opacity="0.7" d="M197.181 343.74H56.4108V373.834H197.181V343.74Z" fill="white"/>
<path opacity="0.7" d="M197.181 381.199H56.4108V411.293H197.181V381.199Z" fill="white"/>
<path opacity="0.05" d="M126.796 325.538C129.121 325.538 131.005 323.653 131.005 321.327C131.005 319.001 129.121 317.116 126.796 317.116C124.472 317.116 122.587 319.001 122.587 321.327C122.587 323.653 124.472 325.538 126.796 325.538Z" fill="#292A2E"/>
<path opacity="0.05" d="M126.796 362.997C129.121 362.997 131.005 361.112 131.005 358.787C131.005 356.461 129.121 354.576 126.796 354.576C124.472 354.576 122.587 356.461 122.587 358.787C122.587 361.112 124.472 362.997 126.796 362.997Z" fill="#292A2E"/>
<path opacity="0.05" d="M126.796 400.458C129.121 400.458 131.005 398.572 131.005 396.247C131.005 393.921 129.121 392.036 126.796 392.036C124.472 392.036 122.587 393.921 122.587 396.247C122.587 398.572 124.472 400.458 126.796 400.458Z" fill="#292A2E"/>
<path opacity="0.7" d="M197.181 419.503H56.4108V449.597H197.181V419.503Z" fill="white"/>
<path opacity="0.05" d="M126.796 438.761C129.121 438.761 131.005 436.876 131.005 434.55C131.005 432.225 129.121 430.34 126.796 430.34C124.472 430.34 122.587 432.225 122.587 434.55C122.587 436.876 124.472 438.761 126.796 438.761Z" fill="#292A2E"/>
<path d="M76.52 143.47H166.515L166.515 26.2802L76.52 26.2802L76.52 143.47Z" fill="#F4F4F4"/>
<path d="M76.5206 26.2803H73.6011V143.471H76.5206V26.2803Z" fill="#F4F4F4"/>
<path opacity="0.05" d="M76.5206 26.2803H73.6011V143.471H76.5206V26.2803Z" fill="#292A2E"/>
<path opacity="0.05" d="M92.9145 122.123H150.122V47.6275H92.9145V122.123Z" fill="#292A2E"/>
<path opacity="0.03" d="M92.9146 122.123H95.8959L95.8959 47.6275H92.9146L92.9146 122.123Z" fill="#292A2E"/>
<path d="M2.91895 246.599H76.52L76.52 172.289H2.91895L2.91895 246.599Z" fill="#F4F4F4"/>
<path opacity="0.05" d="M16.3264 233.062H63.1125L63.1125 185.826H16.3264L16.3264 233.062Z" fill="#292A2E"/>
<path d="M2.91951 172.29H0V246.599H2.91951V172.29Z" fill="#F4F4F4"/>
<path opacity="0.05" d="M2.91951 172.29H0V246.599H2.91951V172.29Z" fill="#292A2E"/>
<path opacity="0.03" d="M16.3264 233.062H19.3077L19.3077 185.826H16.3264L16.3264 233.062Z" fill="#292A2E"/>
<path d="M451.728 26.001H263.923V213.888H451.728V26.001Z" fill="#F4F4F4"/>
<path d="M263.923 26.001H261.77V213.888H263.923V26.001Z" fill="#F4F4F4"/>
<path opacity="0.05" d="M263.923 26.001H261.77V213.888H263.923V26.001Z" fill="#292A2E"/>
<path opacity="0.05" d="M309.42 155.471V106.313H349.669V134.873H412.016V185.441H438.514V213.888H412.016H406.911H272.957V155.471H309.42Z" fill="#292A2E"/>
<path opacity="0.34" d="M344.502 111.65H315.192V116.987H344.502V111.65Z" fill="#FFFFFA"/>
<path opacity="0.34" d="M344.502 122.71H315.192V128.048H344.502V122.71Z" fill="#FFFFFA"/>
<path opacity="0.34" d="M344.502 133.771H315.192V139.108H344.502V133.771Z" fill="#FFFFFA"/>
<path opacity="0.34" d="M283.557 160.651H278.155V165.989H283.557V160.651Z" fill="#FFFFFA"/>
<path opacity="0.34" d="M283.557 171.712H278.155V177.049H283.557V171.712Z" fill="#FFFFFA"/>
<path opacity="0.34" d="M283.557 182.771H278.155V188.109H283.557V182.771Z" fill="#FFFFFA"/>
<path opacity="0.34" d="M293.551 160.651H288.149V165.989H293.551V160.651Z" fill="#FFFFFA"/>
<path opacity="0.34" d="M293.551 171.712H288.149V177.049H293.551V171.712Z" fill="#FFFFFA"/>
<path opacity="0.34" d="M293.551 182.771H288.149V188.109H293.551V182.771Z" fill="#FFFFFA"/>
<path opacity="0.34" d="M303.275 160.651H297.873V165.989H303.275V160.651Z" fill="#FFFFFA"/>
<path opacity="0.34" d="M303.275 171.712H297.873V177.049H303.275V171.712Z" fill="#FFFFFA"/>
<path opacity="0.34" d="M303.275 182.771H297.873V188.109H303.275V182.771Z" fill="#FFFFFA"/>
<path d="M263.923 118.89H301.712V26.0005H304.838V118.89H406.911V26.0005H410.036V118.89H451.728V122.017H410.036V213.888H406.911V122.017H304.838V213.888H301.712V122.017H263.923V118.89Z" fill="white"/>
<path d="M459.209 213.661H256.441V219.909H459.209V213.661Z" fill="#F4F4F4"/>
<path opacity="0.1" d="M459.209 213.661H256.441V219.909H459.209V213.661Z" fill="#292A2E"/>
<path opacity="0.1" d="M256.441 213.661H253.514V219.909H256.441V213.661Z" fill="#292A2E"/>
<path opacity="0.1" d="M256.441 213.661H253.514V219.909H256.441V213.661Z" fill="#292A2E"/>
<path d="M419.524 245.849C390.772 245.849 367.464 253.696 367.464 263.376V284.243H471.584V263.376C471.584 253.696 448.276 245.849 419.524 245.849Z" fill="#367CFF"/>
<path opacity="0.49" d="M419.524 245.849C390.772 245.849 367.464 253.696 367.464 263.376V284.243H471.584V263.376C471.584 253.696 448.276 245.849 419.524 245.849Z" fill="white"/>
<path opacity="0.49" d="M457.402 263.379V284.242H367.463V263.379C367.463 254.506 387.038 247.175 412.432 246.016C437.829 247.175 457.402 254.506 457.402 263.379Z" fill="white"/>
<path d="M471.584 486.997H473.331L471.584 282.392L469.852 284.14L471.087 427.062L409.409 428.111L408.165 284.125L406.433 284.14L407.677 428.14L370.445 428.773L369.195 284.125L367.463 282.407L369.21 486.997L370.927 486.982L370.459 430.507L407.692 429.874L408.165 486.997L409.897 486.982L409.424 429.844L471.102 428.795L471.584 486.997Z" fill="#292A2E"/>
<path d="M314.552 456.364C314.552 456.364 311.456 472.419 296.429 473.314C281.403 474.209 284.661 486.185 284.661 486.185H342.084V457.483L314.552 456.364Z" fill="#367CFF"/>
<path d="M347.314 408.072C347.314 408.072 351.62 423.846 338.532 431.285C325.444 438.724 333.651 448.031 333.651 448.031L385.177 422.67L372.513 396.916L347.314 408.072Z" fill="#367CFF"/>
<path d="M341.863 418.497L303.038 271.944C300.093 255.754 304.527 248.736 311.358 241.919C323.361 229.941 373.096 204.449 373.096 204.449L432.762 204.286C448.584 204.286 464.136 219.894 464.136 235.721C464.136 251.549 448.053 264.972 432.232 264.972L358.758 272.309L378.675 406.497L341.863 418.497Z" fill="#262626"/>
<path d="M378.674 406.496L370.833 353.668L331.11 377.91L341.863 418.497L378.674 406.496Z" fill="#0C0C0C"/>
<path d="M387.678 234.106C387.678 234.106 362.596 239.698 337.755 264.55C322.693 279.618 323.929 306.886 326.188 359.33L350.86 322.872L377.921 274.045L387.678 234.106Z" fill="#0C0C0C"/>
<path d="M474.523 204.27L434.002 204.079L433.987 204.613H421.717C421.717 204.613 390.981 232.906 366.238 250.735C348.24 263.703 337.26 276.066 336.31 289.542C333.994 322.389 307.872 462.482 307.872 462.482L347.185 468.437L381.685 301.016C381.685 301.016 435.629 276.135 448.107 267.478C459.856 259.325 468.156 256.173 472.044 247.276C478.759 231.909 474.523 204.27 474.523 204.27Z" fill="#262626"/>
<path d="M429.063 214.481L363.328 215.352L400.203 237.385L430.885 221.534C431.624 221.137 432.209 220.503 432.546 219.734C432.882 218.965 432.951 218.105 432.741 217.292C432.531 216.48 432.054 215.761 431.388 215.251C430.721 214.741 429.902 214.47 429.063 214.481Z" fill="#292A2E"/>
<path opacity="0.2" d="M429.063 214.481L363.328 215.352L400.203 237.385L430.885 221.534C431.624 221.137 432.209 220.503 432.546 219.734C432.882 218.965 432.951 218.105 432.741 217.292C432.531 216.48 432.054 215.761 431.388 215.251C430.721 214.741 429.902 214.47 429.063 214.481Z" fill="white"/>
<path d="M363.705 96.4998L345.111 156.77L307.87 205.552L329.624 230.535L373.93 181.063C375.972 179.449 377.568 177.342 378.57 174.939L379.26 173.268L404.852 111.32L363.705 96.4998Z" fill="#367CFF"/>
<path d="M392.347 32.5238C392.347 32.5238 384.855 26.8625 382.999 13.8414C381.561 3.75901 390.858 10.2909 390.858 10.2909C390.858 10.2909 389.894 3.02072 395.189 3.74226C400.484 4.46379 403.446 12.1008 403.446 12.1008" fill="#0C0C0C"/>
<path d="M422.553 4.59326C422.553 4.59326 448.823 7.41064 439.327 43.0239L437.003 43.1799L432.284 43.4965" fill="#0C0C0C"/>
<path d="M396.747 80.2167C396.863 80.2017 398.145 101.476 422.847 99.6229C439.951 98.341 446.05 80.1866 446.441 80.1866C444.598 79.7944 442.318 79.1994 441.413 78.9954C439.439 78.5372 437.651 77.4885 436.288 75.9888C434.924 74.4892 434.049 72.6097 433.779 70.6005C433.279 67.585 434.126 52.1561 433.866 49.1047L407.615 54.9671C407.982 61.4118 410.55 76.3514 401.552 78.9954C400.054 79.4322 398.44 79.8366 396.747 80.2167Z" fill="#E98862"/>
<path opacity="0.52" d="M407.247 72.8897C407.658 71.5636 407.923 70.1966 408.037 68.8129C408.325 65.6555 408.267 62.4761 407.864 59.3313C413.2 58.6119 418.228 56.4093 422.376 52.9739C422.863 54.7751 425.544 62.6455 424.801 64.3543C423.399 67.5894 416.805 72.8897 407.247 72.8897Z" fill="#0C0C0C"/>
<path d="M412.666 68.6791C423.023 67.7496 435.42 61.2027 435.599 47.1366L435.76 34.4448C435.939 20.3793 428.7 8.8827 415.462 8.71401C402.224 8.54591 392.184 19.8224 392.005 33.8885L391.934 39.5071C391.943 41.4367 392.084 43.3636 392.355 45.2741C393.034 50.3289 394.087 58.0138 397.516 63.2125C400.753 68.1205 406.049 69.2724 412.666 68.6791Z" fill="#E98862"/>
<path opacity="0.52" d="M407.861 55.8221C405.723 55.919 403.592 55.5119 401.641 54.6338C401.561 54.5977 401.499 54.5319 401.467 54.4504C401.435 54.3689 401.437 54.2783 401.471 54.1978C401.505 54.1173 401.57 54.0535 401.651 54.02C401.731 53.9865 401.822 53.986 401.903 54.0185C406.107 55.8122 409.925 55.55 412.943 53.2594C413.003 53.2113 413.066 53.1663 413.132 53.1248C413.208 53.0891 413.294 53.0832 413.374 53.1084C413.454 53.1335 413.522 53.1878 413.564 53.2606C413.606 53.3333 413.619 53.4191 413.6 53.5009C413.582 53.5828 413.533 53.6548 413.465 53.7025C413.44 53.7175 413.401 53.7482 413.349 53.7898C411.763 54.9988 409.851 55.7064 407.861 55.8221Z" fill="#0C0C0C"/>
<path opacity="0.52" d="M407.958 58.9905C407.572 59.0143 407.184 59.005 406.8 58.9628C406.756 58.9581 406.714 58.945 406.675 58.924C406.637 58.903 406.603 58.8747 406.575 58.8406C406.548 58.8064 406.527 58.7672 406.515 58.7252C406.502 58.6831 406.498 58.639 406.503 58.5954C406.508 58.5517 406.521 58.5094 406.542 58.4709C406.563 58.4324 406.591 58.3984 406.625 58.3708C406.659 58.3432 406.698 58.3226 406.74 58.3102C406.783 58.2978 406.827 58.2938 406.87 58.2984C409.183 58.5439 410.288 57.4839 410.335 57.4382C410.397 57.3755 410.482 57.3402 410.571 57.3401C410.659 57.34 410.744 57.3751 410.807 57.4377C410.87 57.5003 410.905 57.5852 410.905 57.6738C410.905 57.7624 410.87 57.8475 410.808 57.9102C410.011 58.5889 409.004 58.9706 407.958 58.9905Z" fill="#0C0C0C"/>
<path d="M396.377 42.2118C397.278 42.2118 398.008 41.4814 398.008 40.5804C398.008 39.6794 397.278 38.949 396.377 38.949C395.476 38.949 394.746 39.6794 394.746 40.5804C394.746 41.4814 395.476 42.2118 396.377 42.2118Z" fill="#0C0C0C"/>
<path d="M412.308 41.2118C413.209 41.2118 413.939 40.4814 413.939 39.5804C413.939 38.6794 413.209 37.949 412.308 37.949C411.407 37.949 410.677 38.6794 410.677 39.5804C410.677 40.4814 411.407 41.2118 412.308 41.2118Z" fill="#0C0C0C"/>
<path d="M434.723 51.4143C438.746 51.4657 442.061 47.2012 442.114 43.1765C442.167 39.1517 438.932 36.8907 434.909 36.8398L432.802 39.5099L431.265 51.3704L434.723 51.4143Z" fill="#E98862"/>
<path d="M430.72 44.9442C430.72 44.9442 429.362 25.0412 423.329 23.8119C419.311 22.9933 409.568 28.6951 400.543 26.973C396.595 26.222 392.847 27.1971 392.466 29.063C392.315 29.8019 389.856 19.1846 396.038 11.1293C400.961 4.71698 417.069 2.90304 424.398 5.00583C444.692 10.8301 435.737 37.7127 435.737 37.7127L434.832 44.5745L430.72 44.9442Z" fill="#0C0C0C"/>
<g opacity="0.52">
<path d="M405.428 51.1256C405.42 51.1262 405.411 51.1262 405.403 51.1256C404.107 51.1129 401.933 50.9459 401.942 49.976C401.951 49.1719 404.238 40.5164 404.499 39.532C404.521 39.4473 404.576 39.3749 404.652 39.3309C404.728 39.2868 404.818 39.2747 404.903 39.2972C404.987 39.3196 405.06 39.3748 405.104 39.4506C405.148 39.5263 405.16 39.6165 405.137 39.7012C404.121 43.5348 402.608 49.4364 402.602 49.9841C402.728 50.2152 404.067 50.4532 405.409 50.467C405.493 50.4688 405.574 50.5031 405.634 50.5628C405.694 50.6224 405.729 50.7029 405.732 50.7876C405.734 50.8722 405.704 50.9546 405.648 51.0178C405.591 51.0809 405.513 51.1199 405.428 51.1267V51.1256Z" fill="#0C0C0C"/>
</g>
<path d="M401.006 31.7347C399.643 31.3596 398.205 31.3596 396.842 31.7347C396.173 31.9148 395.535 32.1945 394.949 32.5643C394.369 32.9265 393.837 33.3605 393.366 33.856C393.28 33.9443 393.23 34.0626 393.228 34.1865C393.226 34.3103 393.272 34.4301 393.357 34.5208C393.441 34.6116 393.557 34.6664 393.68 34.6739C393.804 34.6813 393.926 34.6408 394.02 34.5608L394.049 34.5354C394.485 34.1314 394.97 33.7842 395.493 33.5019C396.006 33.2209 396.558 33.0191 397.131 32.9034C398.259 32.6668 399.43 32.7323 400.525 33.0935L400.57 33.1096C400.75 33.1674 400.944 33.153 401.113 33.0695C401.282 32.9859 401.411 32.8398 401.474 32.6623C401.537 32.4847 401.528 32.2896 401.449 32.1186C401.37 31.9475 401.228 31.814 401.052 31.7463L401.006 31.7347Z" fill="#0C0C0C"/>
<path d="M410.653 32.5535C411.69 32.0496 412.841 31.8286 413.991 31.9129C414.574 31.9508 415.149 32.077 415.694 32.2872C416.249 32.4978 416.775 32.7773 417.261 33.1191L417.292 33.1399C417.396 33.2071 417.522 33.2314 417.644 33.2078C417.766 33.1842 417.873 33.1145 417.945 33.0132C418.017 32.912 418.046 32.7869 418.028 32.6643C418.01 32.5416 417.945 32.4307 417.847 32.3548C417.314 31.9265 416.73 31.5672 416.107 31.2855C415.477 30.9972 414.807 30.8052 414.119 30.7159C412.719 30.525 411.294 30.716 409.993 31.2688C409.906 31.3067 409.827 31.3614 409.761 31.4299C409.695 31.4983 409.643 31.5791 409.608 31.6676C409.573 31.7561 409.556 31.8506 409.558 31.9457C409.559 32.0409 409.58 32.1347 409.618 32.222C409.694 32.3982 409.838 32.5367 410.016 32.6071C410.105 32.642 410.199 32.6591 410.294 32.6574C410.389 32.6558 410.483 32.6354 410.57 32.5975L410.611 32.5784L410.653 32.5535Z" fill="#0C0C0C"/>
<path d="M409.992 11.2199C410.908 6.83519 409.236 2.77606 406.259 2.15364C403.281 1.53123 400.125 4.58123 399.209 8.96599C398.293 13.3507 399.965 17.4098 402.943 18.0323C405.92 18.6547 409.077 15.6047 409.992 11.2199Z" fill="#0C0C0C"/>
<path d="M366.051 126.976C366.83 136.122 372.345 193.185 373.096 204.451H474.479C475.061 194.29 477.677 149.859 479.886 129.987C481.995 111.026 484.95 102.398 482.521 96.5057C478.238 86.1132 464.603 81.4726 455.371 80.2219C449.733 79.4582 441.253 78.9111 441.253 78.9111C441.253 78.9111 440.535 93.4417 423.416 94.2505C400.11 95.3481 401.667 78.9111 401.552 78.9111C397.776 78.9111 377.225 81.658 372.086 85.0086C364.828 89.741 362.683 96.1909 362.598 102.116C362.501 108.94 365.17 116.601 366.051 126.976Z" fill="#367CFF"/>
<path d="M371.192 181.964C371.12 181.964 371.05 181.937 370.997 181.888C370.943 181.839 370.91 181.772 370.903 181.7L367.062 137.75C367.056 137.673 367.079 137.598 367.129 137.539C367.178 137.48 367.248 137.443 367.325 137.437C367.362 137.433 367.401 137.436 367.437 137.448C367.474 137.459 367.507 137.477 367.537 137.502C367.566 137.526 367.59 137.556 367.607 137.59C367.624 137.624 367.635 137.661 367.638 137.699L371.479 181.65C371.485 181.726 371.461 181.802 371.412 181.86C371.363 181.919 371.293 181.956 371.216 181.962C371.208 181.963 371.2 181.964 371.192 181.964Z" fill="#0C0C0C"/>
<path d="M378.544 207.493L392.464 196.194L390.122 196.856C389.361 197.055 388.554 196.957 387.862 196.583C387.171 196.209 386.647 195.587 386.397 194.841C386.282 194.452 386.246 194.043 386.294 193.64C386.341 193.237 386.47 192.847 386.673 192.496C386.876 192.144 387.148 191.837 387.473 191.594C387.798 191.351 388.17 191.177 388.564 191.082L417.809 183.966L420.326 193.286C421.107 196.18 421.007 199.242 420.038 202.079C419.07 204.916 417.276 207.399 414.887 209.21L404.051 217.391C403.496 217.826 402.809 218.057 402.104 218.043C401.399 218.03 400.72 217.773 400.182 217.317C399.705 216.894 399.375 216.329 399.242 215.706C399.108 215.082 399.177 214.432 399.439 213.851C399.392 213.837 399.35 213.81 399.317 213.774C399.288 213.739 399.267 213.698 399.258 213.653C399.249 213.608 399.251 213.562 399.264 213.518L397.268 215.031C396.651 215.518 395.873 215.753 395.089 215.688C394.306 215.623 393.577 215.263 393.049 214.68C392.595 214.143 392.345 213.463 392.343 212.76C392.341 212.057 392.587 211.376 393.038 210.836C393.006 210.832 392.976 210.821 392.948 210.806L392.128 211.427C391.574 211.863 390.886 212.093 390.181 212.08C389.476 212.066 388.797 211.81 388.259 211.353C387.681 210.84 387.323 210.123 387.261 209.352C387.199 208.581 387.438 207.816 387.928 207.218C387.916 207.201 387.907 207.183 387.899 207.164L382.102 211.869C381.814 212.102 381.484 212.277 381.129 212.382C380.774 212.488 380.402 212.522 380.034 212.484C379.666 212.445 379.309 212.335 378.984 212.159C378.659 211.982 378.371 211.743 378.138 211.456C377.905 211.168 377.73 210.838 377.625 210.483C377.52 210.128 377.485 209.756 377.524 209.387C377.562 209.019 377.672 208.662 377.849 208.337C378.025 208.011 378.264 207.724 378.551 207.49L378.544 207.493Z" fill="#E98862"/>
<path opacity="0.2" d="M388.246 207.332C388.276 207.321 388.305 207.305 388.33 207.284L393.908 202.648C393.936 202.625 393.96 202.596 393.977 202.563C393.994 202.53 394.004 202.495 394.008 202.458C394.011 202.421 394.007 202.384 393.996 202.349C393.985 202.314 393.968 202.281 393.944 202.253C393.92 202.224 393.892 202.201 393.859 202.184C393.826 202.167 393.791 202.156 393.754 202.153C393.717 202.149 393.68 202.153 393.645 202.164C393.61 202.175 393.577 202.193 393.549 202.217L387.971 206.852C387.921 206.894 387.886 206.953 387.875 207.018C387.863 207.083 387.875 207.15 387.907 207.207C387.94 207.264 387.992 207.308 388.054 207.331C388.116 207.354 388.184 207.354 388.246 207.332Z" fill="#0A0A0A"/>
<path opacity="0.2" d="M393.161 210.833C393.191 210.823 393.219 210.807 393.244 210.787L397.656 207.177C397.714 207.13 397.75 207.062 397.758 206.988C397.765 206.914 397.743 206.84 397.696 206.782C397.649 206.724 397.581 206.688 397.507 206.68C397.433 206.673 397.359 206.695 397.301 206.742L392.889 210.352C392.837 210.394 392.802 210.452 392.79 210.517C392.778 210.583 392.789 210.65 392.822 210.708C392.854 210.765 392.906 210.81 392.969 210.833C393.031 210.856 393.099 210.856 393.161 210.833Z" fill="#0A0A0A"/>
<path opacity="0.2" d="M399.619 213.86C399.652 213.848 399.681 213.831 399.708 213.808L401.751 212.055C401.779 212.031 401.802 212.002 401.819 211.969C401.835 211.936 401.845 211.9 401.848 211.864C401.851 211.827 401.847 211.79 401.835 211.755C401.824 211.72 401.806 211.688 401.782 211.66C401.758 211.632 401.728 211.609 401.696 211.592C401.663 211.575 401.627 211.565 401.59 211.563C401.554 211.56 401.517 211.564 401.482 211.576C401.447 211.587 401.414 211.605 401.386 211.629L399.342 213.383C399.293 213.425 399.26 213.484 399.249 213.549C399.238 213.613 399.25 213.68 399.283 213.736C399.316 213.793 399.367 213.836 399.429 213.859C399.49 213.881 399.558 213.882 399.619 213.86Z" fill="#0A0A0A"/>
<path d="M501.579 179.817L501.472 179.343L482.967 97.4604L446.358 105.74L460.801 169.655L402.943 183.878L410.063 216.539L487.166 201.827C487.339 201.793 487.596 201.741 487.772 201.701C490.115 201.171 492.33 200.184 494.292 198.798C496.254 197.411 497.924 195.652 499.206 193.62C500.488 191.588 501.357 189.323 501.764 186.955C502.172 184.586 502.109 182.161 501.579 179.817Z" fill="#367CFF"/>
<path d="M402.66 183.94C402.645 183.866 402.658 183.79 402.698 183.727C402.738 183.663 402.801 183.618 402.874 183.6L460.474 169.447L451.109 128.063C451.098 128.026 451.095 127.986 451.101 127.948C451.106 127.909 451.119 127.871 451.139 127.838C451.159 127.804 451.185 127.775 451.217 127.752C451.249 127.729 451.285 127.713 451.323 127.704C451.361 127.695 451.4 127.694 451.439 127.702C451.477 127.709 451.514 127.723 451.547 127.745C451.579 127.767 451.607 127.795 451.628 127.828C451.65 127.86 451.664 127.897 451.671 127.936L461.099 169.596C461.117 169.67 461.104 169.748 461.065 169.813C461.025 169.878 460.961 169.924 460.887 169.942L403.283 184.096C403.283 184.096 403.668 185.78 403.777 186.349C403.786 186.423 403.765 186.497 403.719 186.555C403.672 186.614 403.605 186.651 403.531 186.66C403.457 186.669 403.383 186.647 403.324 186.601C403.266 186.555 403.228 186.487 403.22 186.413C403.087 185.79 402.66 183.94 402.66 183.94Z" fill="#0C0C0C"/>
<path d="M404.918 229.548L382.672 161.137C382.281 159.934 381.52 158.887 380.498 158.144C379.475 157.401 378.244 157.001 376.98 157.001H286.35C285.405 157.001 284.474 157.225 283.632 157.654C282.791 158.083 282.062 158.705 281.507 159.47C280.952 160.235 280.586 161.12 280.438 162.054C280.291 162.987 280.366 163.943 280.658 164.841L302.905 233.253C303.296 234.455 304.057 235.503 305.079 236.245C306.102 236.988 307.333 237.388 308.597 237.388H399.226C400.171 237.388 401.102 237.165 401.944 236.735C402.785 236.306 403.514 235.684 404.069 234.919C404.624 234.154 404.99 233.269 405.138 232.336C405.285 231.402 405.21 230.447 404.918 229.548Z" fill="#292A2E"/>
<path opacity="0.2" d="M404.918 229.548L382.672 161.137C382.281 159.934 381.52 158.887 380.498 158.144C379.475 157.401 378.244 157.001 376.98 157.001H286.35C285.405 157.001 284.474 157.225 283.632 157.654C282.791 158.083 282.062 158.705 281.507 159.47C280.952 160.235 280.586 161.12 280.438 162.054C280.291 162.987 280.366 163.943 280.658 164.841L302.905 233.253C303.296 234.455 304.057 235.503 305.079 236.245C306.102 236.988 307.333 237.388 308.597 237.388H399.226C400.171 237.388 401.102 237.165 401.944 236.735C402.785 236.306 403.514 235.684 404.069 234.919C404.624 234.154 404.99 233.269 405.138 232.336C405.285 231.402 405.21 230.447 404.918 229.548Z" fill="white"/>
<path d="M340.178 206.704C345.427 206.704 349.683 202.446 349.683 197.195C349.683 191.943 345.427 187.685 340.178 187.685C334.928 187.685 330.672 191.943 330.672 197.195C330.672 202.446 334.928 206.704 340.178 206.704Z" fill="white"/>
<path d="M250.697 7.22925H70.8183C62.4849 7.22925 55.7294 13.9878 55.7294 22.3248V240.789C55.7294 249.126 62.4849 255.884 70.8183 255.884H250.697C259.03 255.884 265.786 249.126 265.786 240.789V22.3248C265.786 13.9878 259.03 7.22925 250.697 7.22925Z" fill="#292A2E"/>
<path d="M257.346 0.577637H77.4669C69.1335 0.577637 62.3779 7.33614 62.3779 15.6732V234.137C62.3779 242.474 69.1335 249.233 77.4669 249.233H257.346C265.679 249.233 272.434 242.474 272.434 234.137V15.6732C272.434 7.33614 265.679 0.577637 257.346 0.577637Z" fill="white"/>
<path d="M257.346 249.81H77.4669C73.3133 249.806 69.331 248.153 66.394 245.215C63.4569 242.276 61.805 238.292 61.8005 234.137V15.6732C61.8051 11.5178 63.4572 7.53396 66.3942 4.59565C69.3312 1.65734 73.3134 0.00458721 77.4669 0L257.346 0C261.499 0.00474008 265.481 1.65756 268.418 4.59585C271.355 7.53415 273.007 11.5179 273.011 15.6732V234.137C273.007 238.292 271.355 242.276 268.418 245.214C265.481 248.153 261.499 249.806 257.346 249.81ZM77.4669 1.15537C73.6195 1.15966 69.931 2.69059 67.2105 5.41229C64.4899 8.13399 62.9597 11.8242 62.9554 15.6732V234.137C62.9597 237.986 64.4899 241.676 67.2105 244.398C69.931 247.119 73.6195 248.65 77.4669 248.655H257.346C261.193 248.65 264.881 247.119 267.602 244.398C270.322 241.676 271.852 237.986 271.856 234.137V15.6732C271.852 11.8242 270.322 8.13404 267.602 5.41232C264.881 2.69061 261.193 1.15966 257.346 1.15537H77.4669Z" fill="#292A2E"/>
<path d="M59.9551 280.493C80.6449 280.493 97.4173 263.713 97.4173 243.014C97.4173 222.315 80.6449 205.535 59.9551 205.535C39.2652 205.535 22.4928 222.315 22.4928 243.014C22.4928 263.713 39.2652 280.493 59.9551 280.493Z" fill="#292A2E"/>
<path d="M52.1782 238.123C51.685 238.123 51.212 237.927 50.8632 237.578C50.5144 237.229 50.3184 236.756 50.3182 236.263V227.256C50.3182 222.276 54.6415 218.223 59.9551 218.223C65.2686 218.223 69.5919 222.276 69.5919 227.256V235.644C69.5962 235.892 69.5513 236.137 69.4598 236.367C69.3683 236.596 69.2321 236.805 69.0589 236.981C68.8858 237.158 68.6794 237.298 68.4516 237.393C68.2238 237.489 67.9792 237.538 67.7322 237.538C67.4852 237.538 67.2407 237.489 67.0129 237.393C66.7851 237.298 66.5787 237.158 66.4055 236.981C66.2324 236.805 66.0961 236.596 66.0046 236.367C65.9131 236.137 65.8683 235.892 65.8726 235.644V227.256C65.8726 224.327 63.2164 221.944 59.9551 221.944C56.6937 221.944 54.0375 224.327 54.0375 227.256V236.264C54.0372 236.757 53.8412 237.23 53.4925 237.578C53.1438 237.927 52.6711 238.123 52.1782 238.123Z" fill="white"/>
<path d="M71.819 234.706H48.0911C46.7073 234.706 45.5856 235.828 45.5856 237.212V259.572C45.5856 260.957 46.7073 262.079 48.0911 262.079H71.819C73.2028 262.079 74.3245 260.957 74.3245 259.572V237.212C74.3245 235.828 73.2028 234.706 71.819 234.706Z" fill="white"/>
<path d="M57.5927 246.179C57.5925 246.622 57.7169 247.057 57.9518 247.433C58.1866 247.809 58.5224 248.111 58.9208 248.306V251.937C58.9208 252.211 59.0295 252.473 59.2229 252.667C59.4163 252.86 59.6786 252.969 59.9521 252.969C60.2256 252.969 60.488 252.86 60.6814 252.667C60.8748 252.473 60.9834 252.211 60.9834 251.937V248.306C61.3629 248.121 61.6862 247.839 61.9197 247.487C62.1531 247.136 62.2882 246.728 62.311 246.307C62.3337 245.886 62.2433 245.466 62.049 245.091C61.8548 244.717 61.5638 244.401 61.2063 244.177C60.8488 243.953 60.4379 243.828 60.0163 243.817C59.5946 243.806 59.1775 243.907 58.8085 244.112C58.4394 244.316 58.1317 244.615 57.9174 244.979C57.7031 245.342 57.59 245.757 57.5898 246.179H57.5927Z" fill="#292A2E"/>
<path d="M241.638 124.649H93.1749C89.6308 124.649 86.7578 127.524 86.7578 131.069V151.891C86.7578 155.437 89.6308 158.311 93.1749 158.311H241.638C245.182 158.311 248.055 155.437 248.055 151.891V131.069C248.055 127.524 245.182 124.649 241.638 124.649Z" fill="white"/>
<path d="M241.637 158.888H93.1749C91.3205 158.886 89.5427 158.148 88.2314 156.836C86.9202 155.525 86.1826 153.746 86.1804 151.891V131.069C86.1826 129.214 86.9201 127.435 88.2314 126.123C89.5426 124.811 91.3205 124.073 93.1749 124.071H241.637C243.492 124.073 245.27 124.811 246.581 126.123C247.892 127.435 248.63 129.214 248.632 131.069V151.891C248.63 153.746 247.892 155.525 246.581 156.837C245.269 158.148 243.491 158.886 241.637 158.888ZM93.1749 125.226C91.6266 125.228 90.1421 125.844 89.0473 126.94C87.9525 128.035 87.3368 129.52 87.3353 131.069V151.891C87.337 153.44 87.9528 154.925 89.0475 156.02C90.1423 157.115 91.6267 157.731 93.1749 157.733H241.637C243.185 157.731 244.67 157.115 245.765 156.02C246.859 154.925 247.475 153.44 247.477 151.891V131.069C247.475 129.52 246.86 128.035 245.765 126.94C244.67 125.844 243.185 125.228 241.637 125.226H93.1749Z" fill="#292A2E"/>
<path d="M241.638 172.756H93.1749C89.6308 172.756 86.7578 175.63 86.7578 179.175V199.998C86.7578 203.543 89.6308 206.417 93.1749 206.417H241.638C245.182 206.417 248.055 203.543 248.055 199.998V179.175C248.055 175.63 245.182 172.756 241.638 172.756Z" fill="white"/>
<path d="M241.637 206.995H93.1749C91.3202 206.992 89.5421 206.254 88.2308 204.942C86.9195 203.63 86.1821 201.851 86.1804 199.995V179.176C86.1826 177.32 86.9202 175.542 88.2314 174.23C89.5427 172.918 91.3205 172.18 93.1749 172.178H241.637C243.491 172.18 245.269 172.918 246.581 174.23C247.892 175.542 248.63 177.32 248.632 179.176V199.995C248.63 201.851 247.893 203.63 246.581 204.942C245.27 206.255 243.492 206.993 241.637 206.995ZM93.1749 173.333C91.6267 173.335 90.1423 173.951 89.0475 175.046C87.9528 176.142 87.337 177.627 87.3353 179.176V199.995C87.337 201.544 87.9528 203.029 89.0475 204.125C90.1423 205.22 91.6267 205.836 93.1749 205.838H241.637C243.185 205.836 244.67 205.22 245.765 204.125C246.86 203.029 247.475 201.544 247.477 199.995V179.176C247.475 177.626 246.86 176.141 245.765 175.046C244.67 173.951 243.185 173.335 241.637 173.333H93.1749Z" fill="#292A2E"/>
<path d="M167.406 99.6105C186.443 99.6105 201.875 84.1713 201.875 65.1261C201.875 46.0808 186.443 30.6416 167.406 30.6416C148.369 30.6416 132.936 46.0808 132.936 65.1261C132.936 84.1713 148.369 99.6105 167.406 99.6105Z" fill="white"/>
<path d="M167.406 100.188C160.474 100.188 153.698 98.1319 147.935 94.2793C142.171 90.4266 137.679 84.9506 135.027 78.5438C132.374 72.1371 131.68 65.0872 133.032 58.2859C134.385 51.4845 137.723 45.237 142.624 40.3334C147.525 35.4299 153.77 32.0906 160.569 30.7377C167.367 29.3848 174.414 30.0792 180.818 32.7329C187.222 35.3867 192.695 39.8807 196.546 45.6466C200.397 51.4126 202.453 58.1915 202.453 65.1261C202.442 74.422 198.747 83.3342 192.176 89.9073C185.606 96.4805 176.698 100.178 167.406 100.188ZM167.406 31.2194C160.703 31.2194 154.15 33.208 148.576 36.9337C143.003 40.6594 138.659 45.9549 136.094 52.1506C133.529 58.3462 132.857 65.1638 134.165 71.741C135.473 78.3183 138.701 84.3599 143.441 89.1019C148.181 93.8438 154.219 97.0731 160.794 98.3814C167.368 99.6897 174.183 99.0182 180.376 96.4519C186.569 93.8856 191.862 89.5397 195.586 83.9637C199.31 78.3878 201.298 71.8323 201.298 65.1261C201.288 56.1366 197.714 47.5181 191.36 41.1616C185.006 34.805 176.391 31.2294 167.406 31.2194Z" fill="#292A2E"/>
<path opacity="0.5" d="M201.11 65.1262C201.12 73.108 198.289 80.8325 193.124 86.916C189.943 83.2059 185.997 80.228 181.558 78.1867C177.118 76.1453 172.29 75.0889 167.404 75.0898C162.518 75.0906 157.69 76.1488 153.251 78.1917C148.812 80.2347 144.868 83.214 141.688 86.9253C138.181 82.7842 135.725 77.8573 134.528 72.5632C133.332 67.2692 133.431 61.7645 134.816 56.5168C136.201 51.269 138.833 46.4334 142.486 42.4208C146.139 38.4081 150.707 35.337 155.8 33.4684C160.894 31.5998 166.363 30.9888 171.743 31.6876C177.123 32.3863 182.255 34.374 186.703 37.4817C191.151 40.5895 194.784 44.7255 197.292 49.5383C199.8 54.3512 201.11 59.6986 201.11 65.1262Z" fill="#367CFF"/>
<path d="M193.124 86.9161C189.96 90.6534 186.021 93.6564 181.58 95.7164C177.139 97.7764 172.303 98.844 167.408 98.8449C162.513 98.8458 157.676 97.7799 153.235 95.7215C148.793 93.6631 144.853 90.6615 141.688 86.9254C144.868 83.214 148.812 80.2347 153.251 78.1918C157.69 76.1489 162.518 75.0907 167.404 75.0898C172.29 75.089 177.118 76.1454 181.558 78.1867C185.997 80.2281 189.943 83.206 193.124 86.9161Z" fill="white"/>
<path d="M167.407 68.7986C174.931 68.7986 181.03 62.6965 181.03 55.1692C181.03 47.6419 174.931 41.5398 167.407 41.5398C159.882 41.5398 153.783 47.6419 153.783 55.1692C153.783 62.6965 159.882 68.7986 167.407 68.7986Z" fill="white"/>
<g opacity="0.4">
<path d="M99.2547 193.686C101.518 193.686 103.352 191.851 103.352 189.587C103.352 187.323 101.518 185.487 99.2547 185.487C96.9917 185.487 95.1572 187.323 95.1572 189.587C95.1572 191.851 96.9917 193.686 99.2547 193.686Z" fill="#292A2E"/>
<path d="M112.072 193.686C114.335 193.686 116.17 191.851 116.17 189.587C116.17 187.323 114.335 185.487 112.072 185.487C109.809 185.487 107.975 187.323 107.975 189.587C107.975 191.851 109.809 193.686 112.072 193.686Z" fill="#292A2E"/>
<path d="M124.889 193.686C127.152 193.686 128.987 191.851 128.987 189.587C128.987 187.323 127.152 185.487 124.889 185.487C122.626 185.487 120.792 187.323 120.792 189.587C120.792 191.851 122.626 193.686 124.889 193.686Z" fill="#292A2E"/>
<path d="M137.707 193.686C139.97 193.686 141.804 191.851 141.804 189.587C141.804 187.323 139.97 185.487 137.707 185.487C135.444 185.487 133.609 187.323 133.609 189.587C133.609 191.851 135.444 193.686 137.707 193.686Z" fill="#292A2E"/>
<path d="M150.524 193.686C152.786 193.686 154.621 191.851 154.621 189.587C154.621 187.323 152.786 185.487 150.524 185.487C148.261 185.487 146.426 187.323 146.426 189.587C146.426 191.851 148.261 193.686 150.524 193.686Z" fill="#292A2E"/>
<path d="M163.341 193.686C165.604 193.686 167.438 191.851 167.438 189.587C167.438 187.323 165.604 185.487 163.341 185.487C161.078 185.487 159.243 187.323 159.243 189.587C159.243 191.851 161.078 193.686 163.341 193.686Z" fill="#292A2E"/>
<path d="M176.158 193.686C178.421 193.686 180.256 191.851 180.256 189.587C180.256 187.323 178.421 185.487 176.158 185.487C173.895 185.487 172.061 187.323 172.061 189.587C172.061 191.851 173.895 193.686 176.158 193.686Z" fill="#292A2E"/>
</g>
<g opacity="0.3">
<path d="M103.319 141.233V142.62H98.0565V141.233H103.319Z" fill="black"/>
<path d="M109.858 141.233V142.62H104.596V141.233H109.858Z" fill="black"/>
<path d="M116.397 141.233V142.62H111.135V141.233H116.397Z" fill="black"/>
<path d="M122.936 141.233V142.62H117.674V141.233H122.936Z" fill="black"/>
<path d="M129.476 141.233V142.62H124.213V141.233H129.476Z" fill="black"/>
<path d="M141.277 149.056C140.107 149.657 138.802 149.951 137.487 149.91C133.993 149.91 131.031 147.352 131.031 143.26C131.031 138.869 134.079 135.075 138.808 135.075C142.515 135.075 145.008 137.675 145.008 141.235C145.008 144.432 143.218 146.308 141.215 146.308C140.363 146.308 139.575 145.73 139.639 144.432H139.553C139.278 144.994 138.851 145.468 138.32 145.799C137.789 146.131 137.176 146.307 136.551 146.308C135.315 146.308 134.25 145.306 134.25 143.622C134.247 142.958 134.376 142.3 134.629 141.686C134.882 141.072 135.254 140.514 135.723 140.045C136.193 139.575 136.75 139.203 137.364 138.95C137.978 138.697 138.635 138.568 139.299 138.571C140.082 138.559 140.859 138.712 141.579 139.018L140.854 142.876C140.535 144.494 140.791 145.245 141.493 145.264C142.58 145.284 143.795 143.835 143.795 141.363C143.795 138.272 141.941 136.056 138.639 136.056C135.166 136.056 132.247 138.805 132.247 143.132C132.247 146.692 134.569 148.887 137.723 148.887C138.841 148.913 139.947 148.656 140.94 148.141L141.277 149.056ZM140.105 139.848C139.759 139.746 139.4 139.696 139.04 139.699C137.165 139.699 135.653 141.468 135.653 143.535C135.653 144.473 136.122 145.153 137.059 145.153C138.294 145.153 139.423 143.576 139.657 142.254L140.105 139.848Z" fill="black"/>
<path d="M151.714 141.233V142.62H146.451V141.233H151.714Z" fill="black"/>
<path d="M158.253 141.233V142.62H152.99V141.233H158.253Z" fill="black"/>
<path d="M164.792 141.233V142.62H159.53V141.233H164.792Z" fill="black"/>
</g>
</g>
<defs>
<clipPath id="clip0_86_4502">
<rect width="514" height="498" fill="white"/>
</clipPath>
</defs>
</svg>
